<?xml version="1.0" encoding="utf-8" standalone="no"?>
<!DOCTYPE svg PUBLIC "-//W3C//DTD SVG 1.1//EN"
  "http://www.w3.org/Graphics/SVG/1.1/DTD/svg11.dtd">
<!-- Created with matplotlib (http://matplotlib.org/) -->
<svg height="423.674688pt" version="1.1" viewBox="0 0 428.418315 423.674688" width="428.418315pt" xmlns="http://www.w3.org/2000/svg" xmlns:xlink="http://www.w3.org/1999/xlink">
 <defs>
  <style type="text/css">
*{stroke-linecap:butt;stroke-linejoin:round;}
  </style>
 </defs>
 <g id="figure_1">
  <g id="patch_1">
   <path d="M -0 423.674688 
L 428.418315 423.674688 
L 428.418315 0 
L -0 0 
z
" style="fill:#ffffff;"/>
  </g>
  <g id="axes_1">
   <g id="patch_2">
    <path d="M 44.059375 195.538437 
L 214.547919 195.538437 
L 214.547919 20.798437 
L 44.059375 20.798437 
z
" style="fill:#ffffff;"/>
   </g>
   <g id="patch_3">
    <path clip-path="url(#p83614c68d2)" d="M 54.288688 68.204649 
L 67.927771 68.204649 
L 67.927771 31.854467 
L 54.288688 31.854467 
L 54.288688 68.204649 
z
" style="fill:#ffffff;stroke:#999999;stroke-linejoin:miter;stroke-width:1.5;"/>
   </g>
   <g id="patch_4">
    <path clip-path="url(#p83614c68d2)" d="M 88.386396 153.46096 
L 102.02548 153.46096 
L 102.02548 104.033729 
L 88.386396 104.033729 
L 88.386396 153.46096 
z
" style="fill:#ffffff;stroke:#999999;stroke-linejoin:miter;stroke-width:1.5;"/>
   </g>
   <g id="patch_5">
    <path clip-path="url(#p83614c68d2)" d="M 122.484105 133.088579 
L 136.123189 133.088579 
L 136.123189 112.611721 
L 122.484105 112.611721 
L 122.484105 133.088579 
z
" style="fill:#ffffff;stroke:#999999;stroke-linejoin:miter;stroke-width:1.5;"/>
   </g>
   <g id="patch_6">
    <path clip-path="url(#p83614c68d2)" d="M 156.581814 142.502659 
L 170.220897 142.502659 
L 170.220897 101.862483 
L 156.581814 101.862483 
L 156.581814 142.502659 
z
" style="fill:#ffffff;stroke:#999999;stroke-linejoin:miter;stroke-width:1.5;"/>
   </g>
   <g id="patch_7">
    <path clip-path="url(#p83614c68d2)" d="M 190.679523 59.43917 
L 204.318606 59.43917 
L 204.318606 44.148548 
L 190.679523 44.148548 
L 190.679523 59.43917 
z
" style="fill:#ffffff;stroke:#999999;stroke-linejoin:miter;stroke-width:1.5;"/>
   </g>
   <g id="matplotlib.axis_1">
    <g id="xtick_1">
     <g id="line2d_1">
      <defs>
       <path d="M 0 0 
L 0 3.5 
" id="m305d58526f" style="stroke:#000000;stroke-width:0.8;"/>
      </defs>
      <g>
       <use style="stroke:#000000;stroke-width:0.8;" x="61.108229" xlink:href="#m305d58526f" y="195.538437"/>
      </g>
     </g>
    </g>
    <g id="xtick_2">
     <g id="line2d_2">
      <g>
       <use style="stroke:#000000;stroke-width:0.8;" x="95.205938" xlink:href="#m305d58526f" y="195.538437"/>
      </g>
     </g>
    </g>
    <g id="xtick_3">
     <g id="line2d_3">
      <g>
       <use style="stroke:#000000;stroke-width:0.8;" x="129.303647" xlink:href="#m305d58526f" y="195.538437"/>
      </g>
     </g>
    </g>
    <g id="xtick_4">
     <g id="line2d_4">
      <g>
       <use style="stroke:#000000;stroke-width:0.8;" x="163.401356" xlink:href="#m305d58526f" y="195.538437"/>
      </g>
     </g>
    </g>
    <g id="xtick_5">
     <g id="line2d_5">
      <g>
       <use style="stroke:#000000;stroke-width:0.8;" x="197.499064" xlink:href="#m305d58526f" y="195.538437"/>
      </g>
     </g>
    </g>
   </g>
   <g id="matplotlib.axis_2">
    <g id="ytick_1">
     <g id="line2d_6">
      <defs>
       <path d="M 0 0 
L -3.5 0 
" id="mcc85299cdd" style="stroke:#000000;stroke-width:0.8;"/>
      </defs>
      <g>
       <use style="stroke:#000000;stroke-width:0.8;" x="44.059375" xlink:href="#mcc85299cdd" y="188.333665"/>
      </g>
     </g>
     <g id="text_1">
      <!-- 0.0 -->
      <defs>
       <path d="M 31.78125 66.40625 
Q 24.171875 66.40625 20.328125 58.90625 
Q 16.5 51.421875 16.5 36.375 
Q 16.5 21.390625 20.328125 13.890625 
Q 24.171875 6.390625 31.78125 6.390625 
Q 39.453125 6.390625 43.28125 13.890625 
Q 47.125 21.390625 47.125 36.375 
Q 47.125 51.421875 43.28125 58.90625 
Q 39.453125 66.40625 31.78125 66.40625 
z
M 31.78125 74.21875 
Q 44.046875 74.21875 50.515625 64.515625 
Q 56.984375 54.828125 56.984375 36.375 
Q 56.984375 17.96875 50.515625 8.265625 
Q 44.046875 -1.421875 31.78125 -1.421875 
Q 19.53125 -1.421875 13.0625 8.265625 
Q 6.59375 17.96875 6.59375 36.375 
Q 6.59375 54.828125 13.0625 64.515625 
Q 19.53125 74.21875 31.78125 74.21875 
z
" id="DejaVuSans-30"/>
       <path d="M 10.6875 12.40625 
L 21 12.40625 
L 21 0 
L 10.6875 0 
z
" id="DejaVuSans-2e"/>
      </defs>
      <g transform="translate(21.15625 192.132884)scale(0.1 -0.1)">
       <use xlink:href="#DejaVuSans-30"/>
       <use x="63.623047" xlink:href="#DejaVuSans-2e"/>
       <use x="95.410156" xlink:href="#DejaVuSans-30"/>
      </g>
     </g>
    </g>
    <g id="ytick_2">
     <g id="line2d_7">
      <g>
       <use style="stroke:#000000;stroke-width:0.8;" x="44.059375" xlink:href="#mcc85299cdd" y="156.27652"/>
      </g>
     </g>
     <g id="text_2">
      <!-- 0.2 -->
      <defs>
       <path d="M 19.1875 8.296875 
L 53.609375 8.296875 
L 53.609375 0 
L 7.328125 0 
L 7.328125 8.296875 
Q 12.9375 14.109375 22.625 23.890625 
Q 32.328125 33.6875 34.8125 36.53125 
Q 39.546875 41.84375 41.421875 45.53125 
Q 43.3125 49.21875 43.3125 52.78125 
Q 43.3125 58.59375 39.234375 62.25 
Q 35.15625 65.921875 28.609375 65.921875 
Q 23.96875 65.921875 18.8125 64.3125 
Q 13.671875 62.703125 7.8125 59.421875 
L 7.8125 69.390625 
Q 13.765625 71.78125 18.9375 73 
Q 24.125 74.21875 28.421875 74.21875 
Q 39.75 74.21875 46.484375 68.546875 
Q 53.21875 62.890625 53.21875 53.421875 
Q 53.21875 48.921875 51.53125 44.890625 
Q 49.859375 40.875 45.40625 35.40625 
Q 44.1875 33.984375 37.640625 27.21875 
Q 31.109375 20.453125 19.1875 8.296875 
z
" id="DejaVuSans-32"/>
      </defs>
      <g transform="translate(21.15625 160.075739)scale(0.1 -0.1)">
       <use xlink:href="#DejaVuSans-30"/>
       <use x="63.623047" xlink:href="#DejaVuSans-2e"/>
       <use x="95.410156" xlink:href="#DejaVuSans-32"/>
      </g>
     </g>
    </g>
    <g id="ytick_3">
     <g id="line2d_8">
      <g>
       <use style="stroke:#000000;stroke-width:0.8;" x="44.059375" xlink:href="#mcc85299cdd" y="124.219375"/>
      </g>
     </g>
     <g id="text_3">
      <!-- 0.4 -->
      <defs>
       <path d="M 37.796875 64.3125 
L 12.890625 25.390625 
L 37.796875 25.390625 
z
M 35.203125 72.90625 
L 47.609375 72.90625 
L 47.609375 25.390625 
L 58.015625 25.390625 
L 58.015625 17.1875 
L 47.609375 17.1875 
L 47.609375 0 
L 37.796875 0 
L 37.796875 17.1875 
L 4.890625 17.1875 
L 4.890625 26.703125 
z
" id="DejaVuSans-34"/>
      </defs>
      <g transform="translate(21.15625 128.018594)scale(0.1 -0.1)">
       <use xlink:href="#DejaVuSans-30"/>
       <use x="63.623047" xlink:href="#DejaVuSans-2e"/>
       <use x="95.410156" xlink:href="#DejaVuSans-34"/>
      </g>
     </g>
    </g>
    <g id="ytick_4">
     <g id="line2d_9">
      <g>
       <use style="stroke:#000000;stroke-width:0.8;" x="44.059375" xlink:href="#mcc85299cdd" y="92.162231"/>
      </g>
     </g>
     <g id="text_4">
      <!-- 0.6 -->
      <defs>
       <path d="M 33.015625 40.375 
Q 26.375 40.375 22.484375 35.828125 
Q 18.609375 31.296875 18.609375 23.390625 
Q 18.609375 15.53125 22.484375 10.953125 
Q 26.375 6.390625 33.015625 6.390625 
Q 39.65625 6.390625 43.53125 10.953125 
Q 47.40625 15.53125 47.40625 23.390625 
Q 47.40625 31.296875 43.53125 35.828125 
Q 39.65625 40.375 33.015625 40.375 
z
M 52.59375 71.296875 
L 52.59375 62.3125 
Q 48.875 64.0625 45.09375 64.984375 
Q 41.3125 65.921875 37.59375 65.921875 
Q 27.828125 65.921875 22.671875 59.328125 
Q 17.53125 52.734375 16.796875 39.40625 
Q 19.671875 43.65625 24.015625 45.921875 
Q 28.375 48.1875 33.59375 48.1875 
Q 44.578125 48.1875 50.953125 41.515625 
Q 57.328125 34.859375 57.328125 23.390625 
Q 57.328125 12.15625 50.6875 5.359375 
Q 44.046875 -1.421875 33.015625 -1.421875 
Q 20.359375 -1.421875 13.671875 8.265625 
Q 6.984375 17.96875 6.984375 36.375 
Q 6.984375 53.65625 15.1875 63.9375 
Q 23.390625 74.21875 37.203125 74.21875 
Q 40.921875 74.21875 44.703125 73.484375 
Q 48.484375 72.75 52.59375 71.296875 
z
" id="DejaVuSans-36"/>
      </defs>
      <g transform="translate(21.15625 95.961449)scale(0.1 -0.1)">
       <use xlink:href="#DejaVuSans-30"/>
       <use x="63.623047" xlink:href="#DejaVuSans-2e"/>
       <use x="95.410156" xlink:href="#DejaVuSans-36"/>
      </g>
     </g>
    </g>
    <g id="ytick_5">
     <g id="line2d_10">
      <g>
       <use style="stroke:#000000;stroke-width:0.8;" x="44.059375" xlink:href="#mcc85299cdd" y="60.105086"/>
      </g>
     </g>
     <g id="text_5">
      <!-- 0.8 -->
      <defs>
       <path d="M 31.78125 34.625 
Q 24.75 34.625 20.71875 30.859375 
Q 16.703125 27.09375 16.703125 20.515625 
Q 16.703125 13.921875 20.71875 10.15625 
Q 24.75 6.390625 31.78125 6.390625 
Q 38.8125 6.390625 42.859375 10.171875 
Q 46.921875 13.96875 46.921875 20.515625 
Q 46.921875 27.09375 42.890625 30.859375 
Q 38.875 34.625 31.78125 34.625 
z
M 21.921875 38.8125 
Q 15.578125 40.375 12.03125 44.71875 
Q 8.5 49.078125 8.5 55.328125 
Q 8.5 64.0625 14.71875 69.140625 
Q 20.953125 74.21875 31.78125 74.21875 
Q 42.671875 74.21875 48.875 69.140625 
Q 55.078125 64.0625 55.078125 55.328125 
Q 55.078125 49.078125 51.53125 44.71875 
Q 48 40.375 41.703125 38.8125 
Q 48.828125 37.15625 52.796875 32.3125 
Q 56.78125 27.484375 56.78125 20.515625 
Q 56.78125 9.90625 50.3125 4.234375 
Q 43.84375 -1.421875 31.78125 -1.421875 
Q 19.734375 -1.421875 13.25 4.234375 
Q 6.78125 9.90625 6.78125 20.515625 
Q 6.78125 27.484375 10.78125 32.3125 
Q 14.796875 37.15625 21.921875 38.8125 
z
M 18.3125 54.390625 
Q 18.3125 48.734375 21.84375 45.5625 
Q 25.390625 42.390625 31.78125 42.390625 
Q 38.140625 42.390625 41.71875 45.5625 
Q 45.3125 48.734375 45.3125 54.390625 
Q 45.3125 60.0625 41.71875 63.234375 
Q 38.140625 66.40625 31.78125 66.40625 
Q 25.390625 66.40625 21.84375 63.234375 
Q 18.3125 60.0625 18.3125 54.390625 
z
" id="DejaVuSans-38"/>
      </defs>
      <g transform="translate(21.15625 63.904304)scale(0.1 -0.1)">
       <use xlink:href="#DejaVuSans-30"/>
       <use x="63.623047" xlink:href="#DejaVuSans-2e"/>
       <use x="95.410156" xlink:href="#DejaVuSans-38"/>
      </g>
     </g>
    </g>
    <g id="ytick_6">
     <g id="line2d_11">
      <g>
       <use style="stroke:#000000;stroke-width:0.8;" x="44.059375" xlink:href="#mcc85299cdd" y="28.047941"/>
      </g>
     </g>
     <g id="text_6">
      <!-- 1.0 -->
      <defs>
       <path d="M 12.40625 8.296875 
L 28.515625 8.296875 
L 28.515625 63.921875 
L 10.984375 60.40625 
L 10.984375 69.390625 
L 28.421875 72.90625 
L 38.28125 72.90625 
L 38.28125 8.296875 
L 54.390625 8.296875 
L 54.390625 0 
L 12.40625 0 
z
" id="DejaVuSans-31"/>
      </defs>
      <g transform="translate(21.15625 31.84716)scale(0.1 -0.1)">
       <use xlink:href="#DejaVuSans-31"/>
       <use x="63.623047" xlink:href="#DejaVuSans-2e"/>
       <use x="95.410156" xlink:href="#DejaVuSans-30"/>
      </g>
     </g>
    </g>
    <g id="text_7">
     <!-- R2ms_train -->
     <defs>
      <path d="M 44.390625 34.1875 
Q 47.5625 33.109375 50.5625 29.59375 
Q 53.5625 26.078125 56.59375 19.921875 
L 66.609375 0 
L 56 0 
L 46.6875 18.703125 
Q 43.0625 26.03125 39.671875 28.421875 
Q 36.28125 30.8125 30.421875 30.8125 
L 19.671875 30.8125 
L 19.671875 0 
L 9.8125 0 
L 9.8125 72.90625 
L 32.078125 72.90625 
Q 44.578125 72.90625 50.734375 67.671875 
Q 56.890625 62.453125 56.890625 51.90625 
Q 56.890625 45.015625 53.6875 40.46875 
Q 50.484375 35.9375 44.390625 34.1875 
z
M 19.671875 64.796875 
L 19.671875 38.921875 
L 32.078125 38.921875 
Q 39.203125 38.921875 42.84375 42.21875 
Q 46.484375 45.515625 46.484375 51.90625 
Q 46.484375 58.296875 42.84375 61.546875 
Q 39.203125 64.796875 32.078125 64.796875 
z
" id="DejaVuSans-52"/>
      <path d="M 52 44.1875 
Q 55.375 50.25 60.0625 53.125 
Q 64.75 56 71.09375 56 
Q 79.640625 56 84.28125 50.015625 
Q 88.921875 44.046875 88.921875 33.015625 
L 88.921875 0 
L 79.890625 0 
L 79.890625 32.71875 
Q 79.890625 40.578125 77.09375 44.375 
Q 74.3125 48.1875 68.609375 48.1875 
Q 61.625 48.1875 57.5625 43.546875 
Q 53.515625 38.921875 53.515625 30.90625 
L 53.515625 0 
L 44.484375 0 
L 44.484375 32.71875 
Q 44.484375 40.625 41.703125 44.40625 
Q 38.921875 48.1875 33.109375 48.1875 
Q 26.21875 48.1875 22.15625 43.53125 
Q 18.109375 38.875 18.109375 30.90625 
L 18.109375 0 
L 9.078125 0 
L 9.078125 54.6875 
L 18.109375 54.6875 
L 18.109375 46.1875 
Q 21.1875 51.21875 25.484375 53.609375 
Q 29.78125 56 35.6875 56 
Q 41.65625 56 45.828125 52.96875 
Q 50 49.953125 52 44.1875 
z
" id="DejaVuSans-6d"/>
      <path d="M 44.28125 53.078125 
L 44.28125 44.578125 
Q 40.484375 46.53125 36.375 47.5 
Q 32.28125 48.484375 27.875 48.484375 
Q 21.1875 48.484375 17.84375 46.4375 
Q 14.5 44.390625 14.5 40.28125 
Q 14.5 37.15625 16.890625 35.375 
Q 19.28125 33.59375 26.515625 31.984375 
L 29.59375 31.296875 
Q 39.15625 29.25 43.1875 25.515625 
Q 47.21875 21.78125 47.21875 15.09375 
Q 47.21875 7.46875 41.1875 3.015625 
Q 35.15625 -1.421875 24.609375 -1.421875 
Q 20.21875 -1.421875 15.453125 -0.5625 
Q 10.6875 0.296875 5.421875 2 
L 5.421875 11.28125 
Q 10.40625 8.6875 15.234375 7.390625 
Q 20.0625 6.109375 24.8125 6.109375 
Q 31.15625 6.109375 34.5625 8.28125 
Q 37.984375 10.453125 37.984375 14.40625 
Q 37.984375 18.0625 35.515625 20.015625 
Q 33.0625 21.96875 24.703125 23.78125 
L 21.578125 24.515625 
Q 13.234375 26.265625 9.515625 29.90625 
Q 5.8125 33.546875 5.8125 39.890625 
Q 5.8125 47.609375 11.28125 51.796875 
Q 16.75 56 26.8125 56 
Q 31.78125 56 36.171875 55.265625 
Q 40.578125 54.546875 44.28125 53.078125 
z
" id="DejaVuSans-73"/>
      <path d="M 50.984375 -16.609375 
L 50.984375 -23.578125 
L -0.984375 -23.578125 
L -0.984375 -16.609375 
z
" id="DejaVuSans-5f"/>
      <path d="M 18.3125 70.21875 
L 18.3125 54.6875 
L 36.8125 54.6875 
L 36.8125 47.703125 
L 18.3125 47.703125 
L 18.3125 18.015625 
Q 18.3125 11.328125 20.140625 9.421875 
Q 21.96875 7.515625 27.59375 7.515625 
L 36.8125 7.515625 
L 36.8125 0 
L 27.59375 0 
Q 17.1875 0 13.234375 3.875 
Q 9.28125 7.765625 9.28125 18.015625 
L 9.28125 47.703125 
L 2.6875 47.703125 
L 2.6875 54.6875 
L 9.28125 54.6875 
L 9.28125 70.21875 
z
" id="DejaVuSans-74"/>
      <path d="M 41.109375 46.296875 
Q 39.59375 47.171875 37.8125 47.578125 
Q 36.03125 48 33.890625 48 
Q 26.265625 48 22.1875 43.046875 
Q 18.109375 38.09375 18.109375 28.8125 
L 18.109375 0 
L 9.078125 0 
L 9.078125 54.6875 
L 18.109375 54.6875 
L 18.109375 46.1875 
Q 20.953125 51.171875 25.484375 53.578125 
Q 30.03125 56 36.53125 56 
Q 37.453125 56 38.578125 55.875 
Q 39.703125 55.765625 41.0625 55.515625 
z
" id="DejaVuSans-72"/>
      <path d="M 34.28125 27.484375 
Q 23.390625 27.484375 19.1875 25 
Q 14.984375 22.515625 14.984375 16.5 
Q 14.984375 11.71875 18.140625 8.90625 
Q 21.296875 6.109375 26.703125 6.109375 
Q 34.1875 6.109375 38.703125 11.40625 
Q 43.21875 16.703125 43.21875 25.484375 
L 43.21875 27.484375 
z
M 52.203125 31.203125 
L 52.203125 0 
L 43.21875 0 
L 43.21875 8.296875 
Q 40.140625 3.328125 35.546875 0.953125 
Q 30.953125 -1.421875 24.3125 -1.421875 
Q 15.921875 -1.421875 10.953125 3.296875 
Q 6 8.015625 6 15.921875 
Q 6 25.140625 12.171875 29.828125 
Q 18.359375 34.515625 30.609375 34.515625 
L 43.21875 34.515625 
L 43.21875 35.40625 
Q 43.21875 41.609375 39.140625 45 
Q 35.0625 48.390625 27.6875 48.390625 
Q 23 48.390625 18.546875 47.265625 
Q 14.109375 46.140625 10.015625 43.890625 
L 10.015625 52.203125 
Q 14.9375 54.109375 19.578125 55.046875 
Q 24.21875 56 28.609375 56 
Q 40.484375 56 46.34375 49.84375 
Q 52.203125 43.703125 52.203125 31.203125 
z
" id="DejaVuSans-61"/>
      <path d="M 9.421875 54.6875 
L 18.40625 54.6875 
L 18.40625 0 
L 9.421875 0 
z
M 9.421875 75.984375 
L 18.40625 75.984375 
L 18.40625 64.59375 
L 9.421875 64.59375 
z
" id="DejaVuSans-69"/>
      <path d="M 54.890625 33.015625 
L 54.890625 0 
L 45.90625 0 
L 45.90625 32.71875 
Q 45.90625 40.484375 42.875 44.328125 
Q 39.84375 48.1875 33.796875 48.1875 
Q 26.515625 48.1875 22.3125 43.546875 
Q 18.109375 38.921875 18.109375 30.90625 
L 18.109375 0 
L 9.078125 0 
L 9.078125 54.6875 
L 18.109375 54.6875 
L 18.109375 46.1875 
Q 21.34375 51.125 25.703125 53.5625 
Q 30.078125 56 35.796875 56 
Q 45.21875 56 50.046875 50.171875 
Q 54.890625 44.34375 54.890625 33.015625 
z
" id="DejaVuSans-6e"/>
     </defs>
     <g transform="translate(14.798438 136.436406)rotate(-90)scale(0.1 -0.1)">
      <use xlink:href="#DejaVuSans-52"/>
      <use x="69.482422" xlink:href="#DejaVuSans-32"/>
      <use x="133.105469" xlink:href="#DejaVuSans-6d"/>
      <use x="230.517578" xlink:href="#DejaVuSans-73"/>
      <use x="282.617188" xlink:href="#DejaVuSans-5f"/>
      <use x="332.617188" xlink:href="#DejaVuSans-74"/>
      <use x="371.826172" xlink:href="#DejaVuSans-72"/>
      <use x="412.939453" xlink:href="#DejaVuSans-61"/>
      <use x="474.21875" xlink:href="#DejaVuSans-69"/>
      <use x="502.001953" xlink:href="#DejaVuSans-6e"/>
     </g>
    </g>
   </g>
   <g id="line2d_12">
    <path clip-path="url(#p83614c68d2)" d="M 61.108229 68.204649 
L 61.108229 116.452478 
" style="fill:none;stroke:#999999;stroke-linecap:square;stroke-width:1.5;"/>
   </g>
   <g id="line2d_13">
    <path clip-path="url(#p83614c68d2)" d="M 61.108229 31.854467 
L 61.108229 28.741165 
" style="fill:none;stroke:#999999;stroke-linecap:square;stroke-width:1.5;"/>
   </g>
   <g id="line2d_14">
    <path clip-path="url(#p83614c68d2)" d="M 57.698459 116.452478 
L 64.518 116.452478 
" style="fill:none;stroke:#999999;stroke-linecap:square;stroke-width:1.5;"/>
   </g>
   <g id="line2d_15">
    <path clip-path="url(#p83614c68d2)" d="M 57.698459 28.741165 
L 64.518 28.741165 
" style="fill:none;stroke:#999999;stroke-linecap:square;stroke-width:1.5;"/>
   </g>
   <g id="line2d_16">
    <defs>
     <path d="M -0 3.535534 
L 2.12132 0 
L -0 -3.535534 
L -2.12132 -0 
z
" id="m2d5944b98c" style="stroke:#999999;stroke-linejoin:miter;"/>
    </defs>
    <g clip-path="url(#p83614c68d2)">
     <use style="fill:#999999;stroke:#999999;stroke-linejoin:miter;" x="61.108229" xlink:href="#m2d5944b98c" y="123.505502"/>
    </g>
   </g>
   <g id="line2d_17">
    <path clip-path="url(#p83614c68d2)" d="M 95.205938 153.46096 
L 95.205938 183.764102 
" style="fill:none;stroke:#999999;stroke-linecap:square;stroke-width:1.5;"/>
   </g>
   <g id="line2d_18">
    <path clip-path="url(#p83614c68d2)" d="M 95.205938 104.033729 
L 95.205938 81.240057 
" style="fill:none;stroke:#999999;stroke-linecap:square;stroke-width:1.5;"/>
   </g>
   <g id="line2d_19">
    <path clip-path="url(#p83614c68d2)" d="M 91.796167 183.764102 
L 98.615709 183.764102 
" style="fill:none;stroke:#999999;stroke-linecap:square;stroke-width:1.5;"/>
   </g>
   <g id="line2d_20">
    <path clip-path="url(#p83614c68d2)" d="M 91.796167 81.240057 
L 98.615709 81.240057 
" style="fill:none;stroke:#999999;stroke-linecap:square;stroke-width:1.5;"/>
   </g>
   <g id="line2d_21"/>
   <g id="line2d_22">
    <path clip-path="url(#p83614c68d2)" d="M 129.303647 133.088579 
L 129.303647 136.906213 
" style="fill:none;stroke:#999999;stroke-linecap:square;stroke-width:1.5;"/>
   </g>
   <g id="line2d_23">
    <path clip-path="url(#p83614c68d2)" d="M 129.303647 112.611721 
L 129.303647 91.213359 
" style="fill:none;stroke:#999999;stroke-linecap:square;stroke-width:1.5;"/>
   </g>
   <g id="line2d_24">
    <path clip-path="url(#p83614c68d2)" d="M 125.893876 136.906213 
L 132.713418 136.906213 
" style="fill:none;stroke:#999999;stroke-linecap:square;stroke-width:1.5;"/>
   </g>
   <g id="line2d_25">
    <path clip-path="url(#p83614c68d2)" d="M 125.893876 91.213359 
L 132.713418 91.213359 
" style="fill:none;stroke:#999999;stroke-linecap:square;stroke-width:1.5;"/>
   </g>
   <g id="line2d_26">
    <g clip-path="url(#p83614c68d2)">
     <use style="fill:#999999;stroke:#999999;stroke-linejoin:miter;" x="129.303647" xlink:href="#m2d5944b98c" y="40.166888"/>
    </g>
   </g>
   <g id="line2d_27">
    <path clip-path="url(#p83614c68d2)" d="M 163.401356 142.502659 
L 163.401356 149.936918 
" style="fill:none;stroke:#999999;stroke-linecap:square;stroke-width:1.5;"/>
   </g>
   <g id="line2d_28">
    <path clip-path="url(#p83614c68d2)" d="M 163.401356 101.862483 
L 163.401356 93.03541 
" style="fill:none;stroke:#999999;stroke-linecap:square;stroke-width:1.5;"/>
   </g>
   <g id="line2d_29">
    <path clip-path="url(#p83614c68d2)" d="M 159.991585 149.936918 
L 166.811127 149.936918 
" style="fill:none;stroke:#999999;stroke-linecap:square;stroke-width:1.5;"/>
   </g>
   <g id="line2d_30">
    <path clip-path="url(#p83614c68d2)" d="M 159.991585 93.03541 
L 166.811127 93.03541 
" style="fill:none;stroke:#999999;stroke-linecap:square;stroke-width:1.5;"/>
   </g>
   <g id="line2d_31"/>
   <g id="line2d_32">
    <path clip-path="url(#p83614c68d2)" d="M 197.499064 59.43917 
L 197.499064 71.25069 
" style="fill:none;stroke:#999999;stroke-linecap:square;stroke-width:1.5;"/>
   </g>
   <g id="line2d_33">
    <path clip-path="url(#p83614c68d2)" d="M 197.499064 44.148548 
L 197.499064 39.590005 
" style="fill:none;stroke:#999999;stroke-linecap:square;stroke-width:1.5;"/>
   </g>
   <g id="line2d_34">
    <path clip-path="url(#p83614c68d2)" d="M 194.089294 71.25069 
L 200.908835 71.25069 
" style="fill:none;stroke:#999999;stroke-linecap:square;stroke-width:1.5;"/>
   </g>
   <g id="line2d_35">
    <path clip-path="url(#p83614c68d2)" d="M 194.089294 39.590005 
L 200.908835 39.590005 
" style="fill:none;stroke:#999999;stroke-linecap:square;stroke-width:1.5;"/>
   </g>
   <g id="line2d_36"/>
   <g id="line2d_37">
    <path clip-path="url(#p83614c68d2)" d="M 61.108229 28.741165 
L 95.205938 108.67255 
L 129.303647 114.371962 
L 163.401356 98.365199 
L 197.499064 48.877158 
" style="fill:none;stroke:#f77189;stroke-linecap:square;stroke-width:1.5;"/>
   </g>
   <g id="line2d_38">
    <path clip-path="url(#p83614c68d2)" d="M 61.108229 29.847412 
L 95.205938 81.240057 
L 129.303647 110.851481 
L 163.401356 121.323818 
L 197.499064 42.804207 
" style="fill:none;stroke:#e18632;stroke-linecap:square;stroke-width:1.5;"/>
   </g>
   <g id="line2d_39">
    <path clip-path="url(#p83614c68d2)" d="M 61.108229 123.505502 
L 95.205938 151.951935 
L 129.303647 129.649543 
L 163.401356 142.098236 
L 197.499064 68.067056 
" style="fill:none;stroke:#b59a32;stroke-linecap:square;stroke-width:1.5;"/>
   </g>
   <g id="line2d_40">
    <path clip-path="url(#p83614c68d2)" d="M 61.108229 116.452478 
L 95.205938 175.032737 
L 129.303647 122.26962 
L 163.401356 149.936918 
L 197.499064 58.666474 
" style="fill:none;stroke:#8ba731;stroke-linecap:square;stroke-width:1.5;"/>
   </g>
   <g id="line2d_41">
    <path clip-path="url(#p83614c68d2)" d="M 61.108229 53.149019 
L 95.205938 118.666687 
L 129.303647 135.110473 
L 163.401356 142.907083 
L 197.499064 43.32347 
" style="fill:none;stroke:#32b258;stroke-linecap:square;stroke-width:1.5;"/>
   </g>
   <g id="line2d_42">
    <path clip-path="url(#p83614c68d2)" d="M 61.108229 50.606827 
L 95.205938 183.764102 
L 129.303647 40.166888 
L 163.401356 93.03541 
L 197.499064 48.161269 
" style="fill:none;stroke:#35ae95;stroke-linecap:square;stroke-width:1.5;"/>
   </g>
   <g id="line2d_43">
    <path clip-path="url(#p83614c68d2)" d="M 61.108229 51.69093 
L 95.205938 118.6809 
L 129.303647 134.958212 
L 163.401356 145.162275 
L 197.499064 44.973627 
" style="fill:none;stroke:#37abb2;stroke-linecap:square;stroke-width:1.5;"/>
   </g>
   <g id="line2d_44">
    <path clip-path="url(#p83614c68d2)" d="M 61.108229 52.455787 
L 95.205938 113.697268 
L 129.303647 136.906213 
L 163.401356 138.002067 
L 197.499064 39.590005 
" style="fill:none;stroke:#39a7d6;stroke-linecap:square;stroke-width:1.5;"/>
   </g>
   <g id="line2d_45">
    <path clip-path="url(#p83614c68d2)" d="M 61.108229 31.114629 
L 95.205938 86.977271 
L 129.303647 131.218945 
L 163.401356 100.561015 
L 197.499064 60.211866 
" style="fill:none;stroke:#8f93f4;stroke-linecap:square;stroke-width:1.5;"/>
   </g>
   <g id="line2d_46">
    <path clip-path="url(#p83614c68d2)" d="M 61.108229 32.594306 
L 95.205938 99.394908 
L 129.303647 117.782445 
L 163.401356 136.731335 
L 197.499064 45.335738 
" style="fill:none;stroke:#db70f4;stroke-linecap:square;stroke-width:1.5;"/>
   </g>
   <g id="line2d_47">
    <path clip-path="url(#p83614c68d2)" d="M 61.108229 83.260279 
L 95.205938 154.969985 
L 129.303647 91.213359 
L 163.401356 103.16395 
L 197.499064 71.25069 
" style="fill:none;stroke:#f667c6;stroke-linecap:square;stroke-width:1.5;"/>
   </g>
   <g id="line2d_48"/>
   <g id="line2d_49"/>
   <g id="line2d_50"/>
   <g id="line2d_51"/>
   <g id="line2d_52"/>
   <g id="line2d_53"/>
   <g id="line2d_54"/>
   <g id="line2d_55"/>
   <g id="line2d_56"/>
   <g id="line2d_57"/>
   <g id="line2d_58"/>
   <g id="line2d_59">
    <path clip-path="url(#p83614c68d2)" d="M 54.288688 51.69093 
L 67.927771 51.69093 
" style="fill:none;stroke:#999999;stroke-linecap:square;stroke-width:1.5;"/>
   </g>
   <g id="line2d_60">
    <path clip-path="url(#p83614c68d2)" d="M 88.386396 118.666687 
L 102.02548 118.666687 
" style="fill:none;stroke:#999999;stroke-linecap:square;stroke-width:1.5;"/>
   </g>
   <g id="line2d_61">
    <path clip-path="url(#p83614c68d2)" d="M 122.484105 122.26962 
L 136.123189 122.26962 
" style="fill:none;stroke:#999999;stroke-linecap:square;stroke-width:1.5;"/>
   </g>
   <g id="line2d_62">
    <path clip-path="url(#p83614c68d2)" d="M 156.581814 136.731335 
L 170.220897 136.731335 
" style="fill:none;stroke:#999999;stroke-linecap:square;stroke-width:1.5;"/>
   </g>
   <g id="line2d_63">
    <path clip-path="url(#p83614c68d2)" d="M 190.679523 48.161269 
L 204.318606 48.161269 
" style="fill:none;stroke:#999999;stroke-linecap:square;stroke-width:1.5;"/>
   </g>
   <g id="patch_8">
    <path d="M 44.059375 195.538437 
L 44.059375 20.798437 
" style="fill:none;stroke:#000000;stroke-linecap:square;stroke-linejoin:miter;stroke-width:0.8;"/>
   </g>
   <g id="patch_9">
    <path d="M 44.059375 195.538437 
L 214.547919 195.538437 
" style="fill:none;stroke:#000000;stroke-linecap:square;stroke-linejoin:miter;stroke-width:0.8;"/>
   </g>
   <g id="text_8">
    <!-- group = GCAMP -->
    <defs>
     <path d="M 45.40625 27.984375 
Q 45.40625 37.75 41.375 43.109375 
Q 37.359375 48.484375 30.078125 48.484375 
Q 22.859375 48.484375 18.828125 43.109375 
Q 14.796875 37.75 14.796875 27.984375 
Q 14.796875 18.265625 18.828125 12.890625 
Q 22.859375 7.515625 30.078125 7.515625 
Q 37.359375 7.515625 41.375 12.890625 
Q 45.40625 18.265625 45.40625 27.984375 
z
M 54.390625 6.78125 
Q 54.390625 -7.171875 48.1875 -13.984375 
Q 42 -20.796875 29.203125 -20.796875 
Q 24.46875 -20.796875 20.265625 -20.09375 
Q 16.0625 -19.390625 12.109375 -17.921875 
L 12.109375 -9.1875 
Q 16.0625 -11.328125 19.921875 -12.34375 
Q 23.78125 -13.375 27.78125 -13.375 
Q 36.625 -13.375 41.015625 -8.765625 
Q 45.40625 -4.15625 45.40625 5.171875 
L 45.40625 9.625 
Q 42.625 4.78125 38.28125 2.390625 
Q 33.9375 0 27.875 0 
Q 17.828125 0 11.671875 7.65625 
Q 5.515625 15.328125 5.515625 27.984375 
Q 5.515625 40.671875 11.671875 48.328125 
Q 17.828125 56 27.875 56 
Q 33.9375 56 38.28125 53.609375 
Q 42.625 51.21875 45.40625 46.390625 
L 45.40625 54.6875 
L 54.390625 54.6875 
z
" id="DejaVuSans-67"/>
     <path d="M 30.609375 48.390625 
Q 23.390625 48.390625 19.1875 42.75 
Q 14.984375 37.109375 14.984375 27.296875 
Q 14.984375 17.484375 19.15625 11.84375 
Q 23.34375 6.203125 30.609375 6.203125 
Q 37.796875 6.203125 41.984375 11.859375 
Q 46.1875 17.53125 46.1875 27.296875 
Q 46.1875 37.015625 41.984375 42.703125 
Q 37.796875 48.390625 30.609375 48.390625 
z
M 30.609375 56 
Q 42.328125 56 49.015625 48.375 
Q 55.71875 40.765625 55.71875 27.296875 
Q 55.71875 13.875 49.015625 6.21875 
Q 42.328125 -1.421875 30.609375 -1.421875 
Q 18.84375 -1.421875 12.171875 6.21875 
Q 5.515625 13.875 5.515625 27.296875 
Q 5.515625 40.765625 12.171875 48.375 
Q 18.84375 56 30.609375 56 
z
" id="DejaVuSans-6f"/>
     <path d="M 8.5 21.578125 
L 8.5 54.6875 
L 17.484375 54.6875 
L 17.484375 21.921875 
Q 17.484375 14.15625 20.5 10.265625 
Q 23.53125 6.390625 29.59375 6.390625 
Q 36.859375 6.390625 41.078125 11.03125 
Q 45.3125 15.671875 45.3125 23.6875 
L 45.3125 54.6875 
L 54.296875 54.6875 
L 54.296875 0 
L 45.3125 0 
L 45.3125 8.40625 
Q 42.046875 3.421875 37.71875 1 
Q 33.40625 -1.421875 27.6875 -1.421875 
Q 18.265625 -1.421875 13.375 4.4375 
Q 8.5 10.296875 8.5 21.578125 
z
M 31.109375 56 
z
" id="DejaVuSans-75"/>
     <path d="M 18.109375 8.203125 
L 18.109375 -20.796875 
L 9.078125 -20.796875 
L 9.078125 54.6875 
L 18.109375 54.6875 
L 18.109375 46.390625 
Q 20.953125 51.265625 25.265625 53.625 
Q 29.59375 56 35.59375 56 
Q 45.5625 56 51.78125 48.09375 
Q 58.015625 40.1875 58.015625 27.296875 
Q 58.015625 14.40625 51.78125 6.484375 
Q 45.5625 -1.421875 35.59375 -1.421875 
Q 29.59375 -1.421875 25.265625 0.953125 
Q 20.953125 3.328125 18.109375 8.203125 
z
M 48.6875 27.296875 
Q 48.6875 37.203125 44.609375 42.84375 
Q 40.53125 48.484375 33.40625 48.484375 
Q 26.265625 48.484375 22.1875 42.84375 
Q 18.109375 37.203125 18.109375 27.296875 
Q 18.109375 17.390625 22.1875 11.75 
Q 26.265625 6.109375 33.40625 6.109375 
Q 40.53125 6.109375 44.609375 11.75 
Q 48.6875 17.390625 48.6875 27.296875 
z
" id="DejaVuSans-70"/>
     <path id="DejaVuSans-20"/>
     <path d="M 10.59375 45.40625 
L 73.1875 45.40625 
L 73.1875 37.203125 
L 10.59375 37.203125 
z
M 10.59375 25.484375 
L 73.1875 25.484375 
L 73.1875 17.1875 
L 10.59375 17.1875 
z
" id="DejaVuSans-3d"/>
     <path d="M 59.515625 10.40625 
L 59.515625 29.984375 
L 43.40625 29.984375 
L 43.40625 38.09375 
L 69.28125 38.09375 
L 69.28125 6.78125 
Q 63.578125 2.734375 56.6875 0.65625 
Q 49.8125 -1.421875 42 -1.421875 
Q 24.90625 -1.421875 15.25 8.5625 
Q 5.609375 18.5625 5.609375 36.375 
Q 5.609375 54.25 15.25 64.234375 
Q 24.90625 74.21875 42 74.21875 
Q 49.125 74.21875 55.546875 72.453125 
Q 61.96875 70.703125 67.390625 67.28125 
L 67.390625 56.78125 
Q 61.921875 61.421875 55.765625 63.765625 
Q 49.609375 66.109375 42.828125 66.109375 
Q 29.4375 66.109375 22.71875 58.640625 
Q 16.015625 51.171875 16.015625 36.375 
Q 16.015625 21.625 22.71875 14.15625 
Q 29.4375 6.6875 42.828125 6.6875 
Q 48.046875 6.6875 52.140625 7.59375 
Q 56.25 8.5 59.515625 10.40625 
z
" id="DejaVuSans-47"/>
     <path d="M 64.40625 67.28125 
L 64.40625 56.890625 
Q 59.421875 61.53125 53.78125 63.8125 
Q 48.140625 66.109375 41.796875 66.109375 
Q 29.296875 66.109375 22.65625 58.46875 
Q 16.015625 50.828125 16.015625 36.375 
Q 16.015625 21.96875 22.65625 14.328125 
Q 29.296875 6.6875 41.796875 6.6875 
Q 48.140625 6.6875 53.78125 8.984375 
Q 59.421875 11.28125 64.40625 15.921875 
L 64.40625 5.609375 
Q 59.234375 2.09375 53.4375 0.328125 
Q 47.65625 -1.421875 41.21875 -1.421875 
Q 24.65625 -1.421875 15.125 8.703125 
Q 5.609375 18.84375 5.609375 36.375 
Q 5.609375 53.953125 15.125 64.078125 
Q 24.65625 74.21875 41.21875 74.21875 
Q 47.75 74.21875 53.53125 72.484375 
Q 59.328125 70.75 64.40625 67.28125 
z
" id="DejaVuSans-43"/>
     <path d="M 34.1875 63.1875 
L 20.796875 26.90625 
L 47.609375 26.90625 
z
M 28.609375 72.90625 
L 39.796875 72.90625 
L 67.578125 0 
L 57.328125 0 
L 50.6875 18.703125 
L 17.828125 18.703125 
L 11.1875 0 
L 0.78125 0 
z
" id="DejaVuSans-41"/>
     <path d="M 9.8125 72.90625 
L 24.515625 72.90625 
L 43.109375 23.296875 
L 61.8125 72.90625 
L 76.515625 72.90625 
L 76.515625 0 
L 66.890625 0 
L 66.890625 64.015625 
L 48.09375 14.015625 
L 38.1875 14.015625 
L 19.390625 64.015625 
L 19.390625 0 
L 9.8125 0 
z
" id="DejaVuSans-4d"/>
     <path d="M 19.671875 64.796875 
L 19.671875 37.40625 
L 32.078125 37.40625 
Q 38.96875 37.40625 42.71875 40.96875 
Q 46.484375 44.53125 46.484375 51.125 
Q 46.484375 57.671875 42.71875 61.234375 
Q 38.96875 64.796875 32.078125 64.796875 
z
M 9.8125 72.90625 
L 32.078125 72.90625 
Q 44.34375 72.90625 50.609375 67.359375 
Q 56.890625 61.8125 56.890625 51.125 
Q 56.890625 40.328125 50.609375 34.8125 
Q 44.34375 29.296875 32.078125 29.296875 
L 19.671875 29.296875 
L 19.671875 0 
L 9.8125 0 
z
" id="DejaVuSans-50"/>
    </defs>
    <g transform="translate(89.190366 14.798437)scale(0.1 -0.1)">
     <use xlink:href="#DejaVuSans-67"/>
     <use x="63.476562" xlink:href="#DejaVuSans-72"/>
     <use x="104.558594" xlink:href="#DejaVuSans-6f"/>
     <use x="165.740234" xlink:href="#DejaVuSans-75"/>
     <use x="229.119141" xlink:href="#DejaVuSans-70"/>
     <use x="292.595703" xlink:href="#DejaVuSans-20"/>
     <use x="324.382812" xlink:href="#DejaVuSans-3d"/>
     <use x="408.171875" xlink:href="#DejaVuSans-20"/>
     <use x="439.958984" xlink:href="#DejaVuSans-47"/>
     <use x="517.449219" xlink:href="#DejaVuSans-43"/>
     <use x="587.273438" xlink:href="#DejaVuSans-41"/>
     <use x="655.681641" xlink:href="#DejaVuSans-4d"/>
     <use x="741.960938" xlink:href="#DejaVuSans-50"/>
    </g>
   </g>
  </g>
  <g id="axes_2">
   <g id="patch_10">
    <path d="M 237.36375 195.538437 
L 407.852294 195.538437 
L 407.852294 20.798437 
L 237.36375 20.798437 
z
" style="fill:#ffffff;"/>
   </g>
   <g id="patch_11">
    <path clip-path="url(#p8340eabc16)" d="M 247.593063 73.356855 
L 261.232146 73.356855 
L 261.232146 46.291255 
L 247.593063 46.291255 
L 247.593063 73.356855 
z
" style="fill:#ffffff;stroke:#999999;stroke-linejoin:miter;stroke-width:1.5;"/>
   </g>
   <g id="patch_12">
    <path clip-path="url(#p8340eabc16)" d="M 281.690771 179.442677 
L 295.329855 179.442677 
L 295.329855 149.130377 
L 281.690771 149.130377 
L 281.690771 179.442677 
z
" style="fill:#ffffff;stroke:#999999;stroke-linejoin:miter;stroke-width:1.5;"/>
   </g>
   <g id="patch_13">
    <path clip-path="url(#p8340eabc16)" d="M 315.78848 127.117563 
L 329.427564 127.117563 
L 329.427564 59.345134 
L 315.78848 59.345134 
L 315.78848 127.117563 
z
" style="fill:#ffffff;stroke:#999999;stroke-linejoin:miter;stroke-width:1.5;"/>
   </g>
   <g id="patch_14">
    <path clip-path="url(#p8340eabc16)" d="M 349.886189 159.437755 
L 363.525272 159.437755 
L 363.525272 128.753986 
L 349.886189 128.753986 
L 349.886189 159.437755 
z
" style="fill:#ffffff;stroke:#999999;stroke-linejoin:miter;stroke-width:1.5;"/>
   </g>
   <g id="patch_15">
    <path clip-path="url(#p8340eabc16)" d="M 383.983898 84.481621 
L 397.622981 84.481621 
L 397.622981 52.477585 
L 383.983898 52.477585 
L 383.983898 84.481621 
z
" style="fill:#ffffff;stroke:#999999;stroke-linejoin:miter;stroke-width:1.5;"/>
   </g>
   <g id="matplotlib.axis_3">
    <g id="xtick_6">
     <g id="line2d_64">
      <g>
       <use style="stroke:#000000;stroke-width:0.8;" x="254.412604" xlink:href="#m305d58526f" y="195.538437"/>
      </g>
     </g>
    </g>
    <g id="xtick_7">
     <g id="line2d_65">
      <g>
       <use style="stroke:#000000;stroke-width:0.8;" x="288.510313" xlink:href="#m305d58526f" y="195.538437"/>
      </g>
     </g>
    </g>
    <g id="xtick_8">
     <g id="line2d_66">
      <g>
       <use style="stroke:#000000;stroke-width:0.8;" x="322.608022" xlink:href="#m305d58526f" y="195.538437"/>
      </g>
     </g>
    </g>
    <g id="xtick_9">
     <g id="line2d_67">
      <g>
       <use style="stroke:#000000;stroke-width:0.8;" x="356.705731" xlink:href="#m305d58526f" y="195.538437"/>
      </g>
     </g>
    </g>
    <g id="xtick_10">
     <g id="line2d_68">
      <g>
       <use style="stroke:#000000;stroke-width:0.8;" x="390.803439" xlink:href="#m305d58526f" y="195.538437"/>
      </g>
     </g>
    </g>
   </g>
   <g id="matplotlib.axis_4">
    <g id="ytick_7">
     <g id="line2d_69">
      <g>
       <use style="stroke:#000000;stroke-width:0.8;" x="237.36375" xlink:href="#mcc85299cdd" y="188.333665"/>
      </g>
     </g>
    </g>
    <g id="ytick_8">
     <g id="line2d_70">
      <g>
       <use style="stroke:#000000;stroke-width:0.8;" x="237.36375" xlink:href="#mcc85299cdd" y="156.27652"/>
      </g>
     </g>
    </g>
    <g id="ytick_9">
     <g id="line2d_71">
      <g>
       <use style="stroke:#000000;stroke-width:0.8;" x="237.36375" xlink:href="#mcc85299cdd" y="124.219375"/>
      </g>
     </g>
    </g>
    <g id="ytick_10">
     <g id="line2d_72">
      <g>
       <use style="stroke:#000000;stroke-width:0.8;" x="237.36375" xlink:href="#mcc85299cdd" y="92.162231"/>
      </g>
     </g>
    </g>
    <g id="ytick_11">
     <g id="line2d_73">
      <g>
       <use style="stroke:#000000;stroke-width:0.8;" x="237.36375" xlink:href="#mcc85299cdd" y="60.105086"/>
      </g>
     </g>
    </g>
    <g id="ytick_12">
     <g id="line2d_74">
      <g>
       <use style="stroke:#000000;stroke-width:0.8;" x="237.36375" xlink:href="#mcc85299cdd" y="28.047941"/>
      </g>
     </g>
    </g>
   </g>
   <g id="line2d_75">
    <path clip-path="url(#p8340eabc16)" d="M 254.412604 73.356855 
L 254.412604 110.624729 
" style="fill:none;stroke:#999999;stroke-linecap:square;stroke-width:1.5;"/>
   </g>
   <g id="line2d_76">
    <path clip-path="url(#p8340eabc16)" d="M 254.412604 46.291255 
L 254.412604 32.999257 
" style="fill:none;stroke:#999999;stroke-linecap:square;stroke-width:1.5;"/>
   </g>
   <g id="line2d_77">
    <path clip-path="url(#p8340eabc16)" d="M 251.002834 110.624729 
L 257.822375 110.624729 
" style="fill:none;stroke:#999999;stroke-linecap:square;stroke-width:1.5;"/>
   </g>
   <g id="line2d_78">
    <path clip-path="url(#p8340eabc16)" d="M 251.002834 32.999257 
L 257.822375 32.999257 
" style="fill:none;stroke:#999999;stroke-linecap:square;stroke-width:1.5;"/>
   </g>
   <g id="line2d_79">
    <g clip-path="url(#p8340eabc16)">
     <use style="fill:#999999;stroke:#999999;stroke-linejoin:miter;" x="254.412604" xlink:href="#m2d5944b98c" y="125.606458"/>
    </g>
   </g>
   <g id="line2d_80">
    <path clip-path="url(#p8340eabc16)" d="M 288.510313 179.442677 
L 288.510313 186.674762 
" style="fill:none;stroke:#999999;stroke-linecap:square;stroke-width:1.5;"/>
   </g>
   <g id="line2d_81">
    <path clip-path="url(#p8340eabc16)" d="M 288.510313 149.130377 
L 288.510313 116.478192 
" style="fill:none;stroke:#999999;stroke-linecap:square;stroke-width:1.5;"/>
   </g>
   <g id="line2d_82">
    <path clip-path="url(#p8340eabc16)" d="M 285.100542 186.674762 
L 291.920084 186.674762 
" style="fill:none;stroke:#999999;stroke-linecap:square;stroke-width:1.5;"/>
   </g>
   <g id="line2d_83">
    <path clip-path="url(#p8340eabc16)" d="M 285.100542 116.478192 
L 291.920084 116.478192 
" style="fill:none;stroke:#999999;stroke-linecap:square;stroke-width:1.5;"/>
   </g>
   <g id="line2d_84"/>
   <g id="line2d_85">
    <path clip-path="url(#p8340eabc16)" d="M 322.608022 127.117563 
L 322.608022 133.035565 
" style="fill:none;stroke:#999999;stroke-linecap:square;stroke-width:1.5;"/>
   </g>
   <g id="line2d_86">
    <path clip-path="url(#p8340eabc16)" d="M 322.608022 59.345134 
L 322.608022 33.415789 
" style="fill:none;stroke:#999999;stroke-linecap:square;stroke-width:1.5;"/>
   </g>
   <g id="line2d_87">
    <path clip-path="url(#p8340eabc16)" d="M 319.198251 133.035565 
L 326.017793 133.035565 
" style="fill:none;stroke:#999999;stroke-linecap:square;stroke-width:1.5;"/>
   </g>
   <g id="line2d_88">
    <path clip-path="url(#p8340eabc16)" d="M 319.198251 33.415789 
L 326.017793 33.415789 
" style="fill:none;stroke:#999999;stroke-linecap:square;stroke-width:1.5;"/>
   </g>
   <g id="line2d_89"/>
   <g id="line2d_90">
    <path clip-path="url(#p8340eabc16)" d="M 356.705731 159.437755 
L 356.705731 174.664304 
" style="fill:none;stroke:#999999;stroke-linecap:square;stroke-width:1.5;"/>
   </g>
   <g id="line2d_91">
    <path clip-path="url(#p8340eabc16)" d="M 356.705731 128.753986 
L 356.705731 113.105447 
" style="fill:none;stroke:#999999;stroke-linecap:square;stroke-width:1.5;"/>
   </g>
   <g id="line2d_92">
    <path clip-path="url(#p8340eabc16)" d="M 353.29596 174.664304 
L 360.115501 174.664304 
" style="fill:none;stroke:#999999;stroke-linecap:square;stroke-width:1.5;"/>
   </g>
   <g id="line2d_93">
    <path clip-path="url(#p8340eabc16)" d="M 353.29596 113.105447 
L 360.115501 113.105447 
" style="fill:none;stroke:#999999;stroke-linecap:square;stroke-width:1.5;"/>
   </g>
   <g id="line2d_94"/>
   <g id="line2d_95">
    <path clip-path="url(#p8340eabc16)" d="M 390.803439 84.481621 
L 390.803439 114.008172 
" style="fill:none;stroke:#999999;stroke-linecap:square;stroke-width:1.5;"/>
   </g>
   <g id="line2d_96">
    <path clip-path="url(#p8340eabc16)" d="M 390.803439 52.477585 
L 390.803439 35.763202 
" style="fill:none;stroke:#999999;stroke-linecap:square;stroke-width:1.5;"/>
   </g>
   <g id="line2d_97">
    <path clip-path="url(#p8340eabc16)" d="M 387.393668 114.008172 
L 394.21321 114.008172 
" style="fill:none;stroke:#999999;stroke-linecap:square;stroke-width:1.5;"/>
   </g>
   <g id="line2d_98">
    <path clip-path="url(#p8340eabc16)" d="M 387.393668 35.763202 
L 394.21321 35.763202 
" style="fill:none;stroke:#999999;stroke-linecap:square;stroke-width:1.5;"/>
   </g>
   <g id="line2d_99">
    <g clip-path="url(#p8340eabc16)">
     <use style="fill:#999999;stroke:#999999;stroke-linejoin:miter;" x="390.803439" xlink:href="#m2d5944b98c" y="138.546312"/>
    </g>
   </g>
   <g id="line2d_100">
    <path clip-path="url(#p8340eabc16)" d="M 254.412604 52.345087 
L 288.510313 144.121262 
L 322.608022 56.277052 
L 356.705731 130.370817 
L 390.803439 72.462857 
" style="fill:none;stroke:#f77189;stroke-linecap:square;stroke-width:1.5;"/>
   </g>
   <g id="line2d_101">
    <path clip-path="url(#p8340eabc16)" d="M 254.412604 59.362169 
L 288.510313 176.1649 
L 322.608022 62.413216 
L 356.705731 157.532777 
L 390.803439 85.286989 
" style="fill:none;stroke:#e18632;stroke-linecap:square;stroke-width:1.5;"/>
   </g>
   <g id="line2d_102">
    <path clip-path="url(#p8340eabc16)" d="M 254.412604 72.346465 
L 288.510313 116.478192 
L 322.608022 126.250946 
L 356.705731 113.105447 
L 390.803439 46.153693 
" style="fill:none;stroke:#b59a32;stroke-linecap:square;stroke-width:1.5;"/>
   </g>
   <g id="line2d_103">
    <path clip-path="url(#p8340eabc16)" d="M 254.412604 57.569054 
L 288.510313 186.674762 
L 322.608022 86.198528 
L 356.705731 174.664304 
L 390.803439 138.546312 
" style="fill:none;stroke:#8ba731;stroke-linecap:square;stroke-width:1.5;"/>
   </g>
   <g id="line2d_104">
    <path clip-path="url(#p8340eabc16)" d="M 254.412604 45.068126 
L 288.510313 176.035399 
L 322.608022 122.693227 
L 356.705731 165.142527 
L 390.803439 54.015708 
" style="fill:none;stroke:#32b258;stroke-linecap:square;stroke-width:1.5;"/>
   </g>
   <g id="line2d_105">
    <path clip-path="url(#p8340eabc16)" d="M 254.412604 74.367246 
L 288.510313 185.549747 
L 322.608022 47.824813 
L 356.705731 152.258337 
L 390.803439 71.027138 
" style="fill:none;stroke:#35ae95;stroke-linecap:square;stroke-width:1.5;"/>
   </g>
   <g id="line2d_106">
    <path clip-path="url(#p8340eabc16)" d="M 254.412604 125.606458 
L 288.510313 179.066264 
L 322.608022 127.98418 
L 356.705731 161.342733 
L 390.803439 114.008172 
" style="fill:none;stroke:#37abb2;stroke-linecap:square;stroke-width:1.5;"/>
   </g>
   <g id="line2d_107">
    <path clip-path="url(#p8340eabc16)" d="M 254.412604 110.624729 
L 288.510313 179.819089 
L 322.608022 116.049092 
L 356.705731 127.137154 
L 390.803439 83.676253 
" style="fill:none;stroke:#39a7d6;stroke-linecap:square;stroke-width:1.5;"/>
   </g>
   <g id="line2d_108">
    <path clip-path="url(#p8340eabc16)" d="M 254.412604 33.954378 
L 288.510313 141.993936 
L 322.608022 133.035565 
L 356.705731 115.023108 
L 390.803439 55.047535 
" style="fill:none;stroke:#8f93f4;stroke-linecap:square;stroke-width:1.5;"/>
   </g>
   <g id="line2d_109">
    <path clip-path="url(#p8340eabc16)" d="M 254.412604 32.999257 
L 288.510313 157.895781 
L 322.608022 33.415789 
L 356.705731 131.169501 
L 390.803439 35.763202 
" style="fill:none;stroke:#db70f4;stroke-linecap:square;stroke-width:1.5;"/>
   </g>
   <g id="line2d_110">
    <path clip-path="url(#p8340eabc16)" d="M 254.412604 47.514384 
L 288.510313 154.139493 
L 322.608022 131.476225 
L 356.705731 140.513083 
L 390.803439 50.939461 
" style="fill:none;stroke:#f667c6;stroke-linecap:square;stroke-width:1.5;"/>
   </g>
   <g id="line2d_111"/>
   <g id="line2d_112"/>
   <g id="line2d_113"/>
   <g id="line2d_114"/>
   <g id="line2d_115"/>
   <g id="line2d_116"/>
   <g id="line2d_117"/>
   <g id="line2d_118"/>
   <g id="line2d_119"/>
   <g id="line2d_120"/>
   <g id="line2d_121"/>
   <g id="line2d_122">
    <path clip-path="url(#p8340eabc16)" d="M 247.593063 57.569054 
L 261.232146 57.569054 
" style="fill:none;stroke:#999999;stroke-linecap:square;stroke-width:1.5;"/>
   </g>
   <g id="line2d_123">
    <path clip-path="url(#p8340eabc16)" d="M 281.690771 176.035399 
L 295.329855 176.035399 
" style="fill:none;stroke:#999999;stroke-linecap:square;stroke-width:1.5;"/>
   </g>
   <g id="line2d_124">
    <path clip-path="url(#p8340eabc16)" d="M 315.78848 116.049092 
L 329.427564 116.049092 
" style="fill:none;stroke:#999999;stroke-linecap:square;stroke-width:1.5;"/>
   </g>
   <g id="line2d_125">
    <path clip-path="url(#p8340eabc16)" d="M 349.886189 140.513083 
L 363.525272 140.513083 
" style="fill:none;stroke:#999999;stroke-linecap:square;stroke-width:1.5;"/>
   </g>
   <g id="line2d_126">
    <path clip-path="url(#p8340eabc16)" d="M 383.983898 71.027138 
L 397.622981 71.027138 
" style="fill:none;stroke:#999999;stroke-linecap:square;stroke-width:1.5;"/>
   </g>
   <g id="patch_16">
    <path d="M 237.36375 195.538437 
L 237.36375 20.798437 
" style="fill:none;stroke:#000000;stroke-linecap:square;stroke-linejoin:miter;stroke-width:0.8;"/>
   </g>
   <g id="patch_17">
    <path d="M 237.36375 195.538437 
L 407.852294 195.538437 
" style="fill:none;stroke:#000000;stroke-linecap:square;stroke-linejoin:miter;stroke-width:0.8;"/>
   </g>
   <g id="text_9">
    <!-- behav_var = velocity -->
    <defs>
     <path d="M 48.6875 27.296875 
Q 48.6875 37.203125 44.609375 42.84375 
Q 40.53125 48.484375 33.40625 48.484375 
Q 26.265625 48.484375 22.1875 42.84375 
Q 18.109375 37.203125 18.109375 27.296875 
Q 18.109375 17.390625 22.1875 11.75 
Q 26.265625 6.109375 33.40625 6.109375 
Q 40.53125 6.109375 44.609375 11.75 
Q 48.6875 17.390625 48.6875 27.296875 
z
M 18.109375 46.390625 
Q 20.953125 51.265625 25.265625 53.625 
Q 29.59375 56 35.59375 56 
Q 45.5625 56 51.78125 48.09375 
Q 58.015625 40.1875 58.015625 27.296875 
Q 58.015625 14.40625 51.78125 6.484375 
Q 45.5625 -1.421875 35.59375 -1.421875 
Q 29.59375 -1.421875 25.265625 0.953125 
Q 20.953125 3.328125 18.109375 8.203125 
L 18.109375 0 
L 9.078125 0 
L 9.078125 75.984375 
L 18.109375 75.984375 
z
" id="DejaVuSans-62"/>
     <path d="M 56.203125 29.59375 
L 56.203125 25.203125 
L 14.890625 25.203125 
Q 15.484375 15.921875 20.484375 11.0625 
Q 25.484375 6.203125 34.421875 6.203125 
Q 39.59375 6.203125 44.453125 7.46875 
Q 49.3125 8.734375 54.109375 11.28125 
L 54.109375 2.78125 
Q 49.265625 0.734375 44.1875 -0.34375 
Q 39.109375 -1.421875 33.890625 -1.421875 
Q 20.796875 -1.421875 13.15625 6.1875 
Q 5.515625 13.8125 5.515625 26.8125 
Q 5.515625 40.234375 12.765625 48.109375 
Q 20.015625 56 32.328125 56 
Q 43.359375 56 49.78125 48.890625 
Q 56.203125 41.796875 56.203125 29.59375 
z
M 47.21875 32.234375 
Q 47.125 39.59375 43.09375 43.984375 
Q 39.0625 48.390625 32.421875 48.390625 
Q 24.90625 48.390625 20.390625 44.140625 
Q 15.875 39.890625 15.1875 32.171875 
z
" id="DejaVuSans-65"/>
     <path d="M 54.890625 33.015625 
L 54.890625 0 
L 45.90625 0 
L 45.90625 32.71875 
Q 45.90625 40.484375 42.875 44.328125 
Q 39.84375 48.1875 33.796875 48.1875 
Q 26.515625 48.1875 22.3125 43.546875 
Q 18.109375 38.921875 18.109375 30.90625 
L 18.109375 0 
L 9.078125 0 
L 9.078125 75.984375 
L 18.109375 75.984375 
L 18.109375 46.1875 
Q 21.34375 51.125 25.703125 53.5625 
Q 30.078125 56 35.796875 56 
Q 45.21875 56 50.046875 50.171875 
Q 54.890625 44.34375 54.890625 33.015625 
z
" id="DejaVuSans-68"/>
     <path d="M 2.984375 54.6875 
L 12.5 54.6875 
L 29.59375 8.796875 
L 46.6875 54.6875 
L 56.203125 54.6875 
L 35.6875 0 
L 23.484375 0 
z
" id="DejaVuSans-76"/>
     <path d="M 9.421875 75.984375 
L 18.40625 75.984375 
L 18.40625 0 
L 9.421875 0 
z
" id="DejaVuSans-6c"/>
     <path d="M 48.78125 52.59375 
L 48.78125 44.1875 
Q 44.96875 46.296875 41.140625 47.34375 
Q 37.3125 48.390625 33.40625 48.390625 
Q 24.65625 48.390625 19.8125 42.84375 
Q 14.984375 37.3125 14.984375 27.296875 
Q 14.984375 17.28125 19.8125 11.734375 
Q 24.65625 6.203125 33.40625 6.203125 
Q 37.3125 6.203125 41.140625 7.25 
Q 44.96875 8.296875 48.78125 10.40625 
L 48.78125 2.09375 
Q 45.015625 0.34375 40.984375 -0.53125 
Q 36.96875 -1.421875 32.421875 -1.421875 
Q 20.0625 -1.421875 12.78125 6.34375 
Q 5.515625 14.109375 5.515625 27.296875 
Q 5.515625 40.671875 12.859375 48.328125 
Q 20.21875 56 33.015625 56 
Q 37.15625 56 41.109375 55.140625 
Q 45.0625 54.296875 48.78125 52.59375 
z
" id="DejaVuSans-63"/>
     <path d="M 32.171875 -5.078125 
Q 28.375 -14.84375 24.75 -17.8125 
Q 21.140625 -20.796875 15.09375 -20.796875 
L 7.90625 -20.796875 
L 7.90625 -13.28125 
L 13.1875 -13.28125 
Q 16.890625 -13.28125 18.9375 -11.515625 
Q 21 -9.765625 23.484375 -3.21875 
L 25.09375 0.875 
L 2.984375 54.6875 
L 12.5 54.6875 
L 29.59375 11.921875 
L 46.6875 54.6875 
L 56.203125 54.6875 
z
" id="DejaVuSans-79"/>
    </defs>
    <g transform="translate(413.619877 55.236406)rotate(-270)scale(0.1 -0.1)">
     <use xlink:href="#DejaVuSans-62"/>
     <use x="63.476562" xlink:href="#DejaVuSans-65"/>
     <use x="125" xlink:href="#DejaVuSans-68"/>
     <use x="188.378906" xlink:href="#DejaVuSans-61"/>
     <use x="249.658203" xlink:href="#DejaVuSans-76"/>
     <use x="308.837891" xlink:href="#DejaVuSans-5f"/>
     <use x="358.837891" xlink:href="#DejaVuSans-76"/>
     <use x="418.017578" xlink:href="#DejaVuSans-61"/>
     <use x="479.296875" xlink:href="#DejaVuSans-72"/>
     <use x="520.410156" xlink:href="#DejaVuSans-20"/>
     <use x="552.197266" xlink:href="#DejaVuSans-3d"/>
     <use x="635.986328" xlink:href="#DejaVuSans-20"/>
     <use x="667.773438" xlink:href="#DejaVuSans-76"/>
     <use x="726.953125" xlink:href="#DejaVuSans-65"/>
     <use x="788.476562" xlink:href="#DejaVuSans-6c"/>
     <use x="816.259766" xlink:href="#DejaVuSans-6f"/>
     <use x="877.441406" xlink:href="#DejaVuSans-63"/>
     <use x="932.421875" xlink:href="#DejaVuSans-69"/>
     <use x="960.205078" xlink:href="#DejaVuSans-74"/>
     <use x="999.414062" xlink:href="#DejaVuSans-79"/>
    </g>
   </g>
   <g id="text_10">
    <!-- group = GFP -->
    <defs>
     <path d="M 9.8125 72.90625 
L 51.703125 72.90625 
L 51.703125 64.59375 
L 19.671875 64.59375 
L 19.671875 43.109375 
L 48.578125 43.109375 
L 48.578125 34.8125 
L 19.671875 34.8125 
L 19.671875 0 
L 9.8125 0 
z
" id="DejaVuSans-46"/>
    </defs>
    <g transform="translate(290.844741 14.798437)scale(0.1 -0.1)">
     <use xlink:href="#DejaVuSans-67"/>
     <use x="63.476562" xlink:href="#DejaVuSans-72"/>
     <use x="104.558594" xlink:href="#DejaVuSans-6f"/>
     <use x="165.740234" xlink:href="#DejaVuSans-75"/>
     <use x="229.119141" xlink:href="#DejaVuSans-70"/>
     <use x="292.595703" xlink:href="#DejaVuSans-20"/>
     <use x="324.382812" xlink:href="#DejaVuSans-3d"/>
     <use x="408.171875" xlink:href="#DejaVuSans-20"/>
     <use x="439.958984" xlink:href="#DejaVuSans-47"/>
     <use x="517.449219" xlink:href="#DejaVuSans-46"/>
     <use x="574.96875" xlink:href="#DejaVuSans-50"/>
    </g>
   </g>
  </g>
  <g id="axes_3">
   <g id="patch_18">
    <path d="M 44.059375 386.118438 
L 214.547919 386.118438 
L 214.547919 211.378437 
L 44.059375 211.378437 
z
" style="fill:#ffffff;"/>
   </g>
   <g id="patch_19">
    <path clip-path="url(#p72555769ab)" d="M 54.288688 285.59142 
L 67.927771 285.59142 
L 67.927771 231.280452 
L 54.288688 231.280452 
L 54.288688 285.59142 
z
" style="fill:#ffffff;stroke:#999999;stroke-linejoin:miter;stroke-width:1.5;"/>
   </g>
   <g id="patch_20">
    <path clip-path="url(#p72555769ab)" d="M 88.386396 366.530579 
L 102.02548 366.530579 
L 102.02548 319.532679 
L 88.386396 319.532679 
L 88.386396 366.530579 
z
" style="fill:#ffffff;stroke:#999999;stroke-linejoin:miter;stroke-width:1.5;"/>
   </g>
   <g id="patch_21">
    <path clip-path="url(#p72555769ab)" d="M 122.484105 311.380459 
L 136.123189 311.380459 
L 136.123189 273.974389 
L 122.484105 273.974389 
L 122.484105 311.380459 
z
" style="fill:#ffffff;stroke:#999999;stroke-linejoin:miter;stroke-width:1.5;"/>
   </g>
   <g id="patch_22">
    <path clip-path="url(#p72555769ab)" d="M 156.581814 337.085062 
L 170.220897 337.085062 
L 170.220897 322.739674 
L 156.581814 322.739674 
L 156.581814 337.085062 
z
" style="fill:#ffffff;stroke:#999999;stroke-linejoin:miter;stroke-width:1.5;"/>
   </g>
   <g id="patch_23">
    <path clip-path="url(#p72555769ab)" d="M 190.679523 270.283992 
L 204.318606 270.283992 
L 204.318606 254.335949 
L 190.679523 254.335949 
L 190.679523 270.283992 
z
" style="fill:#ffffff;stroke:#999999;stroke-linejoin:miter;stroke-width:1.5;"/>
   </g>
   <g id="matplotlib.axis_5">
    <g id="xtick_11">
     <g id="line2d_127">
      <g>
       <use style="stroke:#000000;stroke-width:0.8;" x="61.108229" xlink:href="#m305d58526f" y="386.118438"/>
      </g>
     </g>
     <g id="text_11">
      <!-- full -->
      <defs>
       <path d="M 37.109375 75.984375 
L 37.109375 68.5 
L 28.515625 68.5 
Q 23.6875 68.5 21.796875 66.546875 
Q 19.921875 64.59375 19.921875 59.515625 
L 19.921875 54.6875 
L 34.71875 54.6875 
L 34.71875 47.703125 
L 19.921875 47.703125 
L 19.921875 0 
L 10.890625 0 
L 10.890625 47.703125 
L 2.296875 47.703125 
L 2.296875 54.6875 
L 10.890625 54.6875 
L 10.890625 58.5 
Q 10.890625 67.625 15.140625 71.796875 
Q 19.390625 75.984375 28.609375 75.984375 
z
" id="DejaVuSans-66"/>
      </defs>
      <g transform="translate(53.401198 400.716875)scale(0.1 -0.1)">
       <use xlink:href="#DejaVuSans-66"/>
       <use x="35.205078" xlink:href="#DejaVuSans-75"/>
       <use x="98.583984" xlink:href="#DejaVuSans-6c"/>
       <use x="126.367188" xlink:href="#DejaVuSans-6c"/>
      </g>
     </g>
    </g>
    <g id="xtick_12">
     <g id="line2d_128">
      <g>
       <use style="stroke:#000000;stroke-width:0.8;" x="95.205938" xlink:href="#m305d58526f" y="386.118438"/>
      </g>
     </g>
     <g id="text_12">
      <!-- first -->
      <g transform="translate(85.436407 400.716875)scale(0.1 -0.1)">
       <use xlink:href="#DejaVuSans-66"/>
       <use x="35.205078" xlink:href="#DejaVuSans-69"/>
       <use x="62.988281" xlink:href="#DejaVuSans-72"/>
       <use x="104.101562" xlink:href="#DejaVuSans-73"/>
       <use x="156.201172" xlink:href="#DejaVuSans-74"/>
      </g>
     </g>
    </g>
    <g id="xtick_13">
     <g id="line2d_129">
      <g>
       <use style="stroke:#000000;stroke-width:0.8;" x="129.303647" xlink:href="#m305d58526f" y="386.118438"/>
      </g>
     </g>
     <g id="text_13">
      <!-- reduced -->
      <defs>
       <path d="M 45.40625 46.390625 
L 45.40625 75.984375 
L 54.390625 75.984375 
L 54.390625 0 
L 45.40625 0 
L 45.40625 8.203125 
Q 42.578125 3.328125 38.25 0.953125 
Q 33.9375 -1.421875 27.875 -1.421875 
Q 17.96875 -1.421875 11.734375 6.484375 
Q 5.515625 14.40625 5.515625 27.296875 
Q 5.515625 40.1875 11.734375 48.09375 
Q 17.96875 56 27.875 56 
Q 33.9375 56 38.25 53.625 
Q 42.578125 51.265625 45.40625 46.390625 
z
M 14.796875 27.296875 
Q 14.796875 17.390625 18.875 11.75 
Q 22.953125 6.109375 30.078125 6.109375 
Q 37.203125 6.109375 41.296875 11.75 
Q 45.40625 17.390625 45.40625 27.296875 
Q 45.40625 37.203125 41.296875 42.84375 
Q 37.203125 48.484375 30.078125 48.484375 
Q 22.953125 48.484375 18.875 42.84375 
Q 14.796875 37.203125 14.796875 27.296875 
z
" id="DejaVuSans-64"/>
      </defs>
      <g transform="translate(108.830209 400.716875)scale(0.1 -0.1)">
       <use xlink:href="#DejaVuSans-72"/>
       <use x="41.082031" xlink:href="#DejaVuSans-65"/>
       <use x="102.605469" xlink:href="#DejaVuSans-64"/>
       <use x="166.082031" xlink:href="#DejaVuSans-75"/>
       <use x="229.460938" xlink:href="#DejaVuSans-63"/>
       <use x="284.441406" xlink:href="#DejaVuSans-65"/>
       <use x="345.964844" xlink:href="#DejaVuSans-64"/>
      </g>
     </g>
    </g>
    <g id="xtick_14">
     <g id="line2d_130">
      <g>
       <use style="stroke:#000000;stroke-width:0.8;" x="163.401356" xlink:href="#m305d58526f" y="386.118438"/>
      </g>
     </g>
     <g id="text_14">
      <!-- BSN -->
      <defs>
       <path d="M 19.671875 34.8125 
L 19.671875 8.109375 
L 35.5 8.109375 
Q 43.453125 8.109375 47.28125 11.40625 
Q 51.125 14.703125 51.125 21.484375 
Q 51.125 28.328125 47.28125 31.5625 
Q 43.453125 34.8125 35.5 34.8125 
z
M 19.671875 64.796875 
L 19.671875 42.828125 
L 34.28125 42.828125 
Q 41.5 42.828125 45.03125 45.53125 
Q 48.578125 48.25 48.578125 53.8125 
Q 48.578125 59.328125 45.03125 62.0625 
Q 41.5 64.796875 34.28125 64.796875 
z
M 9.8125 72.90625 
L 35.015625 72.90625 
Q 46.296875 72.90625 52.390625 68.21875 
Q 58.5 63.53125 58.5 54.890625 
Q 58.5 48.1875 55.375 44.234375 
Q 52.25 40.28125 46.1875 39.3125 
Q 53.46875 37.75 57.5 32.78125 
Q 61.53125 27.828125 61.53125 20.40625 
Q 61.53125 10.640625 54.890625 5.3125 
Q 48.25 0 35.984375 0 
L 9.8125 0 
z
" id="DejaVuSans-42"/>
       <path d="M 53.515625 70.515625 
L 53.515625 60.890625 
Q 47.90625 63.578125 42.921875 64.890625 
Q 37.9375 66.21875 33.296875 66.21875 
Q 25.25 66.21875 20.875 63.09375 
Q 16.5 59.96875 16.5 54.203125 
Q 16.5 49.359375 19.40625 46.890625 
Q 22.3125 44.4375 30.421875 42.921875 
L 36.375 41.703125 
Q 47.40625 39.59375 52.65625 34.296875 
Q 57.90625 29 57.90625 20.125 
Q 57.90625 9.515625 50.796875 4.046875 
Q 43.703125 -1.421875 29.984375 -1.421875 
Q 24.8125 -1.421875 18.96875 -0.25 
Q 13.140625 0.921875 6.890625 3.21875 
L 6.890625 13.375 
Q 12.890625 10.015625 18.65625 8.296875 
Q 24.421875 6.59375 29.984375 6.59375 
Q 38.421875 6.59375 43.015625 9.90625 
Q 47.609375 13.234375 47.609375 19.390625 
Q 47.609375 24.75 44.3125 27.78125 
Q 41.015625 30.8125 33.5 32.328125 
L 27.484375 33.5 
Q 16.453125 35.6875 11.515625 40.375 
Q 6.59375 45.0625 6.59375 53.421875 
Q 6.59375 63.09375 13.40625 68.65625 
Q 20.21875 74.21875 32.171875 74.21875 
Q 37.3125 74.21875 42.625 73.28125 
Q 47.953125 72.359375 53.515625 70.515625 
z
" id="DejaVuSans-53"/>
       <path d="M 9.8125 72.90625 
L 23.09375 72.90625 
L 55.421875 11.921875 
L 55.421875 72.90625 
L 64.984375 72.90625 
L 64.984375 0 
L 51.703125 0 
L 19.390625 60.984375 
L 19.390625 0 
L 9.8125 0 
z
" id="DejaVuSans-4e"/>
      </defs>
      <g transform="translate(153.056824 400.716875)scale(0.1 -0.1)">
       <use xlink:href="#DejaVuSans-42"/>
       <use x="68.587891" xlink:href="#DejaVuSans-53"/>
       <use x="132.064453" xlink:href="#DejaVuSans-4e"/>
      </g>
     </g>
    </g>
    <g id="xtick_15">
     <g id="line2d_131">
      <g>
       <use style="stroke:#000000;stroke-width:0.8;" x="197.499064" xlink:href="#m305d58526f" y="386.118438"/>
      </g>
     </g>
     <g id="text_15">
      <!-- Population -->
      <g transform="translate(171.053752 400.716875)scale(0.1 -0.1)">
       <use xlink:href="#DejaVuSans-50"/>
       <use x="60.255859" xlink:href="#DejaVuSans-6f"/>
       <use x="121.4375" xlink:href="#DejaVuSans-70"/>
       <use x="184.914062" xlink:href="#DejaVuSans-75"/>
       <use x="248.292969" xlink:href="#DejaVuSans-6c"/>
       <use x="276.076172" xlink:href="#DejaVuSans-61"/>
       <use x="337.355469" xlink:href="#DejaVuSans-74"/>
       <use x="376.564453" xlink:href="#DejaVuSans-69"/>
       <use x="404.347656" xlink:href="#DejaVuSans-6f"/>
       <use x="465.529297" xlink:href="#DejaVuSans-6e"/>
      </g>
     </g>
    </g>
    <g id="text_16">
     <!-- model -->
     <g transform="translate(113.734116 414.395)scale(0.1 -0.1)">
      <use xlink:href="#DejaVuSans-6d"/>
      <use x="97.412109" xlink:href="#DejaVuSans-6f"/>
      <use x="158.59375" xlink:href="#DejaVuSans-64"/>
      <use x="222.070312" xlink:href="#DejaVuSans-65"/>
      <use x="283.59375" xlink:href="#DejaVuSans-6c"/>
     </g>
    </g>
   </g>
   <g id="matplotlib.axis_6">
    <g id="ytick_13">
     <g id="line2d_132">
      <g>
       <use style="stroke:#000000;stroke-width:0.8;" x="44.059375" xlink:href="#mcc85299cdd" y="378.913665"/>
      </g>
     </g>
     <g id="text_17">
      <!-- 0.0 -->
      <g transform="translate(21.15625 382.712884)scale(0.1 -0.1)">
       <use xlink:href="#DejaVuSans-30"/>
       <use x="63.623047" xlink:href="#DejaVuSans-2e"/>
       <use x="95.410156" xlink:href="#DejaVuSans-30"/>
      </g>
     </g>
    </g>
    <g id="ytick_14">
     <g id="line2d_133">
      <g>
       <use style="stroke:#000000;stroke-width:0.8;" x="44.059375" xlink:href="#mcc85299cdd" y="346.85652"/>
      </g>
     </g>
     <g id="text_18">
      <!-- 0.2 -->
      <g transform="translate(21.15625 350.655739)scale(0.1 -0.1)">
       <use xlink:href="#DejaVuSans-30"/>
       <use x="63.623047" xlink:href="#DejaVuSans-2e"/>
       <use x="95.410156" xlink:href="#DejaVuSans-32"/>
      </g>
     </g>
    </g>
    <g id="ytick_15">
     <g id="line2d_134">
      <g>
       <use style="stroke:#000000;stroke-width:0.8;" x="44.059375" xlink:href="#mcc85299cdd" y="314.799375"/>
      </g>
     </g>
     <g id="text_19">
      <!-- 0.4 -->
      <g transform="translate(21.15625 318.598594)scale(0.1 -0.1)">
       <use xlink:href="#DejaVuSans-30"/>
       <use x="63.623047" xlink:href="#DejaVuSans-2e"/>
       <use x="95.410156" xlink:href="#DejaVuSans-34"/>
      </g>
     </g>
    </g>
    <g id="ytick_16">
     <g id="line2d_135">
      <g>
       <use style="stroke:#000000;stroke-width:0.8;" x="44.059375" xlink:href="#mcc85299cdd" y="282.742231"/>
      </g>
     </g>
     <g id="text_20">
      <!-- 0.6 -->
      <g transform="translate(21.15625 286.541449)scale(0.1 -0.1)">
       <use xlink:href="#DejaVuSans-30"/>
       <use x="63.623047" xlink:href="#DejaVuSans-2e"/>
       <use x="95.410156" xlink:href="#DejaVuSans-36"/>
      </g>
     </g>
    </g>
    <g id="ytick_17">
     <g id="line2d_136">
      <g>
       <use style="stroke:#000000;stroke-width:0.8;" x="44.059375" xlink:href="#mcc85299cdd" y="250.685086"/>
      </g>
     </g>
     <g id="text_21">
      <!-- 0.8 -->
      <g transform="translate(21.15625 254.484304)scale(0.1 -0.1)">
       <use xlink:href="#DejaVuSans-30"/>
       <use x="63.623047" xlink:href="#DejaVuSans-2e"/>
       <use x="95.410156" xlink:href="#DejaVuSans-38"/>
      </g>
     </g>
    </g>
    <g id="ytick_18">
     <g id="line2d_137">
      <g>
       <use style="stroke:#000000;stroke-width:0.8;" x="44.059375" xlink:href="#mcc85299cdd" y="218.627941"/>
      </g>
     </g>
     <g id="text_22">
      <!-- 1.0 -->
      <g transform="translate(21.15625 222.42716)scale(0.1 -0.1)">
       <use xlink:href="#DejaVuSans-31"/>
       <use x="63.623047" xlink:href="#DejaVuSans-2e"/>
       <use x="95.410156" xlink:href="#DejaVuSans-30"/>
      </g>
     </g>
    </g>
    <g id="text_23">
     <!-- R2ms_train -->
     <g transform="translate(14.798438 327.016406)rotate(-90)scale(0.1 -0.1)">
      <use xlink:href="#DejaVuSans-52"/>
      <use x="69.482422" xlink:href="#DejaVuSans-32"/>
      <use x="133.105469" xlink:href="#DejaVuSans-6d"/>
      <use x="230.517578" xlink:href="#DejaVuSans-73"/>
      <use x="282.617188" xlink:href="#DejaVuSans-5f"/>
      <use x="332.617188" xlink:href="#DejaVuSans-74"/>
      <use x="371.826172" xlink:href="#DejaVuSans-72"/>
      <use x="412.939453" xlink:href="#DejaVuSans-61"/>
      <use x="474.21875" xlink:href="#DejaVuSans-69"/>
      <use x="502.001953" xlink:href="#DejaVuSans-6e"/>
     </g>
    </g>
   </g>
   <g id="line2d_138">
    <path clip-path="url(#p72555769ab)" d="M 61.108229 285.59142 
L 61.108229 307.955788 
" style="fill:none;stroke:#999999;stroke-linecap:square;stroke-width:1.5;"/>
   </g>
   <g id="line2d_139">
    <path clip-path="url(#p72555769ab)" d="M 61.108229 231.280452 
L 61.108229 219.607481 
" style="fill:none;stroke:#999999;stroke-linecap:square;stroke-width:1.5;"/>
   </g>
   <g id="line2d_140">
    <path clip-path="url(#p72555769ab)" d="M 57.698459 307.955788 
L 64.518 307.955788 
" style="fill:none;stroke:#999999;stroke-linecap:square;stroke-width:1.5;"/>
   </g>
   <g id="line2d_141">
    <path clip-path="url(#p72555769ab)" d="M 57.698459 219.607481 
L 64.518 219.607481 
" style="fill:none;stroke:#999999;stroke-linecap:square;stroke-width:1.5;"/>
   </g>
   <g id="line2d_142"/>
   <g id="line2d_143">
    <path clip-path="url(#p72555769ab)" d="M 95.205938 366.530579 
L 95.205938 375.153153 
" style="fill:none;stroke:#999999;stroke-linecap:square;stroke-width:1.5;"/>
   </g>
   <g id="line2d_144">
    <path clip-path="url(#p72555769ab)" d="M 95.205938 319.532679 
L 95.205938 307.799191 
" style="fill:none;stroke:#999999;stroke-linecap:square;stroke-width:1.5;"/>
   </g>
   <g id="line2d_145">
    <path clip-path="url(#p72555769ab)" d="M 91.796167 375.153153 
L 98.615709 375.153153 
" style="fill:none;stroke:#999999;stroke-linecap:square;stroke-width:1.5;"/>
   </g>
   <g id="line2d_146">
    <path clip-path="url(#p72555769ab)" d="M 91.796167 307.799191 
L 98.615709 307.799191 
" style="fill:none;stroke:#999999;stroke-linecap:square;stroke-width:1.5;"/>
   </g>
   <g id="line2d_147"/>
   <g id="line2d_148">
    <path clip-path="url(#p72555769ab)" d="M 129.303647 311.380459 
L 129.303647 322.794561 
" style="fill:none;stroke:#999999;stroke-linecap:square;stroke-width:1.5;"/>
   </g>
   <g id="line2d_149">
    <path clip-path="url(#p72555769ab)" d="M 129.303647 273.974389 
L 129.303647 237.670859 
" style="fill:none;stroke:#999999;stroke-linecap:square;stroke-width:1.5;"/>
   </g>
   <g id="line2d_150">
    <path clip-path="url(#p72555769ab)" d="M 125.893876 322.794561 
L 132.713418 322.794561 
" style="fill:none;stroke:#999999;stroke-linecap:square;stroke-width:1.5;"/>
   </g>
   <g id="line2d_151">
    <path clip-path="url(#p72555769ab)" d="M 125.893876 237.670859 
L 132.713418 237.670859 
" style="fill:none;stroke:#999999;stroke-linecap:square;stroke-width:1.5;"/>
   </g>
   <g id="line2d_152"/>
   <g id="line2d_153">
    <path clip-path="url(#p72555769ab)" d="M 163.401356 337.085062 
L 163.401356 343.59212 
" style="fill:none;stroke:#999999;stroke-linecap:square;stroke-width:1.5;"/>
   </g>
   <g id="line2d_154">
    <path clip-path="url(#p72555769ab)" d="M 163.401356 322.739674 
L 163.401356 315.130446 
" style="fill:none;stroke:#999999;stroke-linecap:square;stroke-width:1.5;"/>
   </g>
   <g id="line2d_155">
    <path clip-path="url(#p72555769ab)" d="M 159.991585 343.59212 
L 166.811127 343.59212 
" style="fill:none;stroke:#999999;stroke-linecap:square;stroke-width:1.5;"/>
   </g>
   <g id="line2d_156">
    <path clip-path="url(#p72555769ab)" d="M 159.991585 315.130446 
L 166.811127 315.130446 
" style="fill:none;stroke:#999999;stroke-linecap:square;stroke-width:1.5;"/>
   </g>
   <g id="line2d_157"/>
   <g id="line2d_158">
    <path clip-path="url(#p72555769ab)" d="M 197.499064 270.283992 
L 197.499064 284.423528 
" style="fill:none;stroke:#999999;stroke-linecap:square;stroke-width:1.5;"/>
   </g>
   <g id="line2d_159">
    <path clip-path="url(#p72555769ab)" d="M 197.499064 254.335949 
L 197.499064 250.087562 
" style="fill:none;stroke:#999999;stroke-linecap:square;stroke-width:1.5;"/>
   </g>
   <g id="line2d_160">
    <path clip-path="url(#p72555769ab)" d="M 194.089294 284.423528 
L 200.908835 284.423528 
" style="fill:none;stroke:#999999;stroke-linecap:square;stroke-width:1.5;"/>
   </g>
   <g id="line2d_161">
    <path clip-path="url(#p72555769ab)" d="M 194.089294 250.087562 
L 200.908835 250.087562 
" style="fill:none;stroke:#999999;stroke-linecap:square;stroke-width:1.5;"/>
   </g>
   <g id="line2d_162">
    <g clip-path="url(#p72555769ab)">
     <use style="fill:#999999;stroke:#999999;stroke-linejoin:miter;" x="197.499064" xlink:href="#m2d5944b98c" y="309.68151"/>
     <use style="fill:#999999;stroke:#999999;stroke-linejoin:miter;" x="197.499064" xlink:href="#m2d5944b98c" y="229.923635"/>
    </g>
   </g>
   <g id="line2d_163">
    <path clip-path="url(#p72555769ab)" d="M 61.108229 219.607481 
L 95.205938 307.799191 
L 129.303647 311.565753 
L 163.401356 318.211697 
L 197.499064 229.923635 
" style="fill:none;stroke:#f77189;stroke-linecap:square;stroke-width:1.5;"/>
   </g>
   <g id="line2d_164">
    <path clip-path="url(#p72555769ab)" d="M 61.108229 220.789987 
L 95.205938 324.226036 
L 129.303647 303.768712 
L 163.401356 318.332588 
L 197.499064 256.405394 
" style="fill:none;stroke:#e18632;stroke-linecap:square;stroke-width:1.5;"/>
   </g>
   <g id="line2d_165">
    <path clip-path="url(#p72555769ab)" d="M 61.108229 305.720525 
L 95.205938 375.153153 
L 129.303647 307.559447 
L 163.401356 335.751566 
L 197.499064 284.423528 
" style="fill:none;stroke:#b59a32;stroke-linecap:square;stroke-width:1.5;"/>
   </g>
   <g id="line2d_166">
    <path clip-path="url(#p72555769ab)" d="M 61.108229 307.955788 
L 95.205938 363.381001 
L 129.303647 311.271856 
L 163.401356 327.403912 
L 197.499064 250.087562 
" style="fill:none;stroke:#8ba731;stroke-linecap:square;stroke-width:1.5;"/>
   </g>
   <g id="line2d_167">
    <path clip-path="url(#p72555769ab)" d="M 61.108229 253.630666 
L 95.205938 368.6621 
L 129.303647 254.819954 
L 163.401356 332.114055 
L 197.499064 262.046213 
" style="fill:none;stroke:#32b258;stroke-linecap:square;stroke-width:1.5;"/>
   </g>
   <g id="line2d_168">
    <path clip-path="url(#p72555769ab)" d="M 61.108229 233.116541 
L 95.205938 338.377417 
L 129.303647 251.326554 
L 163.401356 338.418557 
L 197.499064 255.271218 
" style="fill:none;stroke:#35ae95;stroke-linecap:square;stroke-width:1.5;"/>
   </g>
   <g id="line2d_169">
    <path clip-path="url(#p72555769ab)" d="M 61.108229 277.133978 
L 95.205938 364.399057 
L 129.303647 322.794561 
L 163.401356 341.516672 
L 197.499064 309.68151 
" style="fill:none;stroke:#37abb2;stroke-linecap:square;stroke-width:1.5;"/>
   </g>
   <g id="line2d_170">
    <path clip-path="url(#p72555769ab)" d="M 61.108229 265.296161 
L 95.205938 374.615052 
L 129.303647 237.670859 
L 163.401356 343.59212 
L 197.499064 257.998592 
" style="fill:none;stroke:#39a7d6;stroke-linecap:square;stroke-width:1.5;"/>
   </g>
   <g id="line2d_171">
    <path clip-path="url(#p72555769ab)" d="M 61.108229 229.444362 
L 95.205938 311.619377 
L 129.303647 311.489063 
L 163.401356 327.14676 
L 197.499064 253.40068 
" style="fill:none;stroke:#8f93f4;stroke-linecap:square;stroke-width:1.5;"/>
   </g>
   <g id="line2d_172">
    <path clip-path="url(#p72555769ab)" d="M 61.108229 294.048862 
L 95.205938 314.839322 
L 129.303647 303.432388 
L 163.401356 315.130446 
L 197.499064 274.684239 
" style="fill:none;stroke:#db70f4;stroke-linecap:square;stroke-width:1.5;"/>
   </g>
   <g id="line2d_173">
    <path clip-path="url(#p72555769ab)" d="M 61.108229 250.388625 
L 95.205938 342.682258 
L 129.303647 293.128823 
L 163.401356 328.768788 
L 197.499064 265.883744 
" style="fill:none;stroke:#f667c6;stroke-linecap:square;stroke-width:1.5;"/>
   </g>
   <g id="line2d_174"/>
   <g id="line2d_175"/>
   <g id="line2d_176"/>
   <g id="line2d_177"/>
   <g id="line2d_178"/>
   <g id="line2d_179"/>
   <g id="line2d_180"/>
   <g id="line2d_181"/>
   <g id="line2d_182"/>
   <g id="line2d_183"/>
   <g id="line2d_184"/>
   <g id="line2d_185">
    <path clip-path="url(#p72555769ab)" d="M 54.288688 253.630666 
L 67.927771 253.630666 
" style="fill:none;stroke:#999999;stroke-linecap:square;stroke-width:1.5;"/>
   </g>
   <g id="line2d_186">
    <path clip-path="url(#p72555769ab)" d="M 88.386396 342.682258 
L 102.02548 342.682258 
" style="fill:none;stroke:#999999;stroke-linecap:square;stroke-width:1.5;"/>
   </g>
   <g id="line2d_187">
    <path clip-path="url(#p72555769ab)" d="M 122.484105 303.768712 
L 136.123189 303.768712 
" style="fill:none;stroke:#999999;stroke-linecap:square;stroke-width:1.5;"/>
   </g>
   <g id="line2d_188">
    <path clip-path="url(#p72555769ab)" d="M 156.581814 328.768788 
L 170.220897 328.768788 
" style="fill:none;stroke:#999999;stroke-linecap:square;stroke-width:1.5;"/>
   </g>
   <g id="line2d_189">
    <path clip-path="url(#p72555769ab)" d="M 190.679523 257.998592 
L 204.318606 257.998592 
" style="fill:none;stroke:#999999;stroke-linecap:square;stroke-width:1.5;"/>
   </g>
   <g id="patch_24">
    <path d="M 44.059375 386.118437 
L 44.059375 211.378437 
" style="fill:none;stroke:#000000;stroke-linecap:square;stroke-linejoin:miter;stroke-width:0.8;"/>
   </g>
   <g id="patch_25">
    <path d="M 44.059375 386.118438 
L 214.547919 386.118438 
" style="fill:none;stroke:#000000;stroke-linecap:square;stroke-linejoin:miter;stroke-width:0.8;"/>
   </g>
  </g>
  <g id="axes_4">
   <g id="patch_26">
    <path d="M 237.36375 386.118438 
L 407.852294 386.118438 
L 407.852294 211.378437 
L 237.36375 211.378437 
z
" style="fill:#ffffff;"/>
   </g>
   <g id="patch_27">
    <path clip-path="url(#p6b9ecacefe)" d="M 247.593063 311.832693 
L 261.232146 311.832693 
L 261.232146 252.338135 
L 247.593063 252.338135 
L 247.593063 311.832693 
z
" style="fill:#ffffff;stroke:#999999;stroke-linejoin:miter;stroke-width:1.5;"/>
   </g>
   <g id="patch_28">
    <path clip-path="url(#p6b9ecacefe)" d="M 281.690771 375.940841 
L 295.329855 375.940841 
L 295.329855 368.282859 
L 281.690771 368.282859 
L 281.690771 375.940841 
z
" style="fill:#ffffff;stroke:#999999;stroke-linejoin:miter;stroke-width:1.5;"/>
   </g>
   <g id="patch_29">
    <path clip-path="url(#p6b9ecacefe)" d="M 315.78848 314.077854 
L 329.427564 314.077854 
L 329.427564 281.291939 
L 315.78848 281.291939 
L 315.78848 314.077854 
z
" style="fill:#ffffff;stroke:#999999;stroke-linejoin:miter;stroke-width:1.5;"/>
   </g>
   <g id="patch_30">
    <path clip-path="url(#p6b9ecacefe)" d="M 349.886189 364.315428 
L 363.525272 364.315428 
L 363.525272 341.463973 
L 349.886189 341.463973 
L 349.886189 364.315428 
z
" style="fill:#ffffff;stroke:#999999;stroke-linejoin:miter;stroke-width:1.5;"/>
   </g>
   <g id="patch_31">
    <path clip-path="url(#p6b9ecacefe)" d="M 383.983898 322.237562 
L 397.622981 322.237562 
L 397.622981 280.782772 
L 383.983898 280.782772 
L 383.983898 322.237562 
z
" style="fill:#ffffff;stroke:#999999;stroke-linejoin:miter;stroke-width:1.5;"/>
   </g>
   <g id="matplotlib.axis_7">
    <g id="xtick_16">
     <g id="line2d_190">
      <g>
       <use style="stroke:#000000;stroke-width:0.8;" x="254.412604" xlink:href="#m305d58526f" y="386.118438"/>
      </g>
     </g>
     <g id="text_24">
      <!-- full -->
      <g transform="translate(246.705573 400.716875)scale(0.1 -0.1)">
       <use xlink:href="#DejaVuSans-66"/>
       <use x="35.205078" xlink:href="#DejaVuSans-75"/>
       <use x="98.583984" xlink:href="#DejaVuSans-6c"/>
       <use x="126.367188" xlink:href="#DejaVuSans-6c"/>
      </g>
     </g>
    </g>
    <g id="xtick_17">
     <g id="line2d_191">
      <g>
       <use style="stroke:#000000;stroke-width:0.8;" x="288.510313" xlink:href="#m305d58526f" y="386.118438"/>
      </g>
     </g>
     <g id="text_25">
      <!-- first -->
      <g transform="translate(278.740782 400.716875)scale(0.1 -0.1)">
       <use xlink:href="#DejaVuSans-66"/>
       <use x="35.205078" xlink:href="#DejaVuSans-69"/>
       <use x="62.988281" xlink:href="#DejaVuSans-72"/>
       <use x="104.101562" xlink:href="#DejaVuSans-73"/>
       <use x="156.201172" xlink:href="#DejaVuSans-74"/>
      </g>
     </g>
    </g>
    <g id="xtick_18">
     <g id="line2d_192">
      <g>
       <use style="stroke:#000000;stroke-width:0.8;" x="322.608022" xlink:href="#m305d58526f" y="386.118438"/>
      </g>
     </g>
     <g id="text_26">
      <!-- reduced -->
      <g transform="translate(302.134584 400.716875)scale(0.1 -0.1)">
       <use xlink:href="#DejaVuSans-72"/>
       <use x="41.082031" xlink:href="#DejaVuSans-65"/>
       <use x="102.605469" xlink:href="#DejaVuSans-64"/>
       <use x="166.082031" xlink:href="#DejaVuSans-75"/>
       <use x="229.460938" xlink:href="#DejaVuSans-63"/>
       <use x="284.441406" xlink:href="#DejaVuSans-65"/>
       <use x="345.964844" xlink:href="#DejaVuSans-64"/>
      </g>
     </g>
    </g>
    <g id="xtick_19">
     <g id="line2d_193">
      <g>
       <use style="stroke:#000000;stroke-width:0.8;" x="356.705731" xlink:href="#m305d58526f" y="386.118438"/>
      </g>
     </g>
     <g id="text_27">
      <!-- BSN -->
      <g transform="translate(346.361199 400.716875)scale(0.1 -0.1)">
       <use xlink:href="#DejaVuSans-42"/>
       <use x="68.587891" xlink:href="#DejaVuSans-53"/>
       <use x="132.064453" xlink:href="#DejaVuSans-4e"/>
      </g>
     </g>
    </g>
    <g id="xtick_20">
     <g id="line2d_194">
      <g>
       <use style="stroke:#000000;stroke-width:0.8;" x="390.803439" xlink:href="#m305d58526f" y="386.118438"/>
      </g>
     </g>
     <g id="text_28">
      <!-- Population -->
      <g transform="translate(364.358127 400.716875)scale(0.1 -0.1)">
       <use xlink:href="#DejaVuSans-50"/>
       <use x="60.255859" xlink:href="#DejaVuSans-6f"/>
       <use x="121.4375" xlink:href="#DejaVuSans-70"/>
       <use x="184.914062" xlink:href="#DejaVuSans-75"/>
       <use x="248.292969" xlink:href="#DejaVuSans-6c"/>
       <use x="276.076172" xlink:href="#DejaVuSans-61"/>
       <use x="337.355469" xlink:href="#DejaVuSans-74"/>
       <use x="376.564453" xlink:href="#DejaVuSans-69"/>
       <use x="404.347656" xlink:href="#DejaVuSans-6f"/>
       <use x="465.529297" xlink:href="#DejaVuSans-6e"/>
      </g>
     </g>
    </g>
    <g id="text_29">
     <!-- model -->
     <g transform="translate(307.038491 414.395)scale(0.1 -0.1)">
      <use xlink:href="#DejaVuSans-6d"/>
      <use x="97.412109" xlink:href="#DejaVuSans-6f"/>
      <use x="158.59375" xlink:href="#DejaVuSans-64"/>
      <use x="222.070312" xlink:href="#DejaVuSans-65"/>
      <use x="283.59375" xlink:href="#DejaVuSans-6c"/>
     </g>
    </g>
   </g>
   <g id="matplotlib.axis_8">
    <g id="ytick_19">
     <g id="line2d_195">
      <g>
       <use style="stroke:#000000;stroke-width:0.8;" x="237.36375" xlink:href="#mcc85299cdd" y="378.913665"/>
      </g>
     </g>
    </g>
    <g id="ytick_20">
     <g id="line2d_196">
      <g>
       <use style="stroke:#000000;stroke-width:0.8;" x="237.36375" xlink:href="#mcc85299cdd" y="346.85652"/>
      </g>
     </g>
    </g>
    <g id="ytick_21">
     <g id="line2d_197">
      <g>
       <use style="stroke:#000000;stroke-width:0.8;" x="237.36375" xlink:href="#mcc85299cdd" y="314.799375"/>
      </g>
     </g>
    </g>
    <g id="ytick_22">
     <g id="line2d_198">
      <g>
       <use style="stroke:#000000;stroke-width:0.8;" x="237.36375" xlink:href="#mcc85299cdd" y="282.742231"/>
      </g>
     </g>
    </g>
    <g id="ytick_23">
     <g id="line2d_199">
      <g>
       <use style="stroke:#000000;stroke-width:0.8;" x="237.36375" xlink:href="#mcc85299cdd" y="250.685086"/>
      </g>
     </g>
    </g>
    <g id="ytick_24">
     <g id="line2d_200">
      <g>
       <use style="stroke:#000000;stroke-width:0.8;" x="237.36375" xlink:href="#mcc85299cdd" y="218.627941"/>
      </g>
     </g>
    </g>
   </g>
   <g id="line2d_201">
    <path clip-path="url(#p6b9ecacefe)" d="M 254.412604 311.832693 
L 254.412604 332.879686 
" style="fill:none;stroke:#999999;stroke-linecap:square;stroke-width:1.5;"/>
   </g>
   <g id="line2d_202">
    <path clip-path="url(#p6b9ecacefe)" d="M 254.412604 252.338135 
L 254.412604 221.310581 
" style="fill:none;stroke:#999999;stroke-linecap:square;stroke-width:1.5;"/>
   </g>
   <g id="line2d_203">
    <path clip-path="url(#p6b9ecacefe)" d="M 251.002834 332.879686 
L 257.822375 332.879686 
" style="fill:none;stroke:#999999;stroke-linecap:square;stroke-width:1.5;"/>
   </g>
   <g id="line2d_204">
    <path clip-path="url(#p6b9ecacefe)" d="M 251.002834 221.310581 
L 257.822375 221.310581 
" style="fill:none;stroke:#999999;stroke-linecap:square;stroke-width:1.5;"/>
   </g>
   <g id="line2d_205"/>
   <g id="line2d_206">
    <path clip-path="url(#p6b9ecacefe)" d="M 288.510313 375.940841 
L 288.510313 378.17571 
" style="fill:none;stroke:#999999;stroke-linecap:square;stroke-width:1.5;"/>
   </g>
   <g id="line2d_207">
    <path clip-path="url(#p6b9ecacefe)" d="M 288.510313 368.282859 
L 288.510313 365.799102 
" style="fill:none;stroke:#999999;stroke-linecap:square;stroke-width:1.5;"/>
   </g>
   <g id="line2d_208">
    <path clip-path="url(#p6b9ecacefe)" d="M 285.100542 378.17571 
L 291.920084 378.17571 
" style="fill:none;stroke:#999999;stroke-linecap:square;stroke-width:1.5;"/>
   </g>
   <g id="line2d_209">
    <path clip-path="url(#p6b9ecacefe)" d="M 285.100542 365.799102 
L 291.920084 365.799102 
" style="fill:none;stroke:#999999;stroke-linecap:square;stroke-width:1.5;"/>
   </g>
   <g id="line2d_210">
    <g clip-path="url(#p6b9ecacefe)">
     <use style="fill:#999999;stroke:#999999;stroke-linejoin:miter;" x="288.510313" xlink:href="#m2d5944b98c" y="351.808292"/>
     <use style="fill:#999999;stroke:#999999;stroke-linejoin:miter;" x="288.510313" xlink:href="#m2d5944b98c" y="350.045765"/>
    </g>
   </g>
   <g id="line2d_211">
    <path clip-path="url(#p6b9ecacefe)" d="M 322.608022 314.077854 
L 322.608022 335.168291 
" style="fill:none;stroke:#999999;stroke-linecap:square;stroke-width:1.5;"/>
   </g>
   <g id="line2d_212">
    <path clip-path="url(#p6b9ecacefe)" d="M 322.608022 281.291939 
L 322.608022 243.091433 
" style="fill:none;stroke:#999999;stroke-linecap:square;stroke-width:1.5;"/>
   </g>
   <g id="line2d_213">
    <path clip-path="url(#p6b9ecacefe)" d="M 319.198251 335.168291 
L 326.017793 335.168291 
" style="fill:none;stroke:#999999;stroke-linecap:square;stroke-width:1.5;"/>
   </g>
   <g id="line2d_214">
    <path clip-path="url(#p6b9ecacefe)" d="M 319.198251 243.091433 
L 326.017793 243.091433 
" style="fill:none;stroke:#999999;stroke-linecap:square;stroke-width:1.5;"/>
   </g>
   <g id="line2d_215">
    <g clip-path="url(#p6b9ecacefe)">
     <use style="fill:#999999;stroke:#999999;stroke-linejoin:miter;" x="322.608022" xlink:href="#m2d5944b98c" y="225.68462"/>
    </g>
   </g>
   <g id="line2d_216">
    <path clip-path="url(#p6b9ecacefe)" d="M 356.705731 364.315428 
L 356.705731 368.879606 
" style="fill:none;stroke:#999999;stroke-linecap:square;stroke-width:1.5;"/>
   </g>
   <g id="line2d_217">
    <path clip-path="url(#p6b9ecacefe)" d="M 356.705731 341.463973 
L 356.705731 330.292634 
" style="fill:none;stroke:#999999;stroke-linecap:square;stroke-width:1.5;"/>
   </g>
   <g id="line2d_218">
    <path clip-path="url(#p6b9ecacefe)" d="M 353.29596 368.879606 
L 360.115501 368.879606 
" style="fill:none;stroke:#999999;stroke-linecap:square;stroke-width:1.5;"/>
   </g>
   <g id="line2d_219">
    <path clip-path="url(#p6b9ecacefe)" d="M 353.29596 330.292634 
L 360.115501 330.292634 
" style="fill:none;stroke:#999999;stroke-linecap:square;stroke-width:1.5;"/>
   </g>
   <g id="line2d_220"/>
   <g id="line2d_221">
    <path clip-path="url(#p6b9ecacefe)" d="M 390.803439 322.237562 
L 390.803439 333.771033 
" style="fill:none;stroke:#999999;stroke-linecap:square;stroke-width:1.5;"/>
   </g>
   <g id="line2d_222">
    <path clip-path="url(#p6b9ecacefe)" d="M 390.803439 280.782772 
L 390.803439 249.108941 
" style="fill:none;stroke:#999999;stroke-linecap:square;stroke-width:1.5;"/>
   </g>
   <g id="line2d_223">
    <path clip-path="url(#p6b9ecacefe)" d="M 387.393668 333.771033 
L 394.21321 333.771033 
" style="fill:none;stroke:#999999;stroke-linecap:square;stroke-width:1.5;"/>
   </g>
   <g id="line2d_224">
    <path clip-path="url(#p6b9ecacefe)" d="M 387.393668 249.108941 
L 394.21321 249.108941 
" style="fill:none;stroke:#999999;stroke-linecap:square;stroke-width:1.5;"/>
   </g>
   <g id="line2d_225"/>
   <g id="line2d_226">
    <path clip-path="url(#p6b9ecacefe)" d="M 254.412604 286.6893 
L 288.510313 376.413337 
L 322.608022 289.495904 
L 356.705731 330.292634 
L 390.803439 316.884461 
" style="fill:none;stroke:#f77189;stroke-linecap:square;stroke-width:1.5;"/>
   </g>
   <g id="line2d_227">
    <path clip-path="url(#p6b9ecacefe)" d="M 254.412604 332.879686 
L 288.510313 365.799102 
L 322.608022 335.168291 
L 356.705731 365.585637 
L 390.803439 333.771033 
" style="fill:none;stroke:#e18632;stroke-linecap:square;stroke-width:1.5;"/>
   </g>
   <g id="line2d_228">
    <path clip-path="url(#p6b9ecacefe)" d="M 254.412604 221.310581 
L 288.510313 351.808292 
L 322.608022 225.68462 
L 356.705731 335.851124 
L 390.803439 259.153504 
" style="fill:none;stroke:#b59a32;stroke-linecap:square;stroke-width:1.5;"/>
   </g>
   <g id="line2d_229">
    <path clip-path="url(#p6b9ecacefe)" d="M 254.412604 314.635048 
L 288.510313 370.766616 
L 322.608022 316.84067 
L 356.705731 368.879606 
L 390.803439 332.72844 
" style="fill:none;stroke:#8ba731;stroke-linecap:square;stroke-width:1.5;"/>
   </g>
   <g id="line2d_230">
    <path clip-path="url(#p6b9ecacefe)" d="M 254.412604 313.131041 
L 288.510313 377.689615 
L 322.608022 273.087974 
L 356.705731 358.05249 
L 390.803439 267.381413 
" style="fill:none;stroke:#32b258;stroke-linecap:square;stroke-width:1.5;"/>
   </g>
   <g id="line2d_231">
    <path clip-path="url(#p6b9ecacefe)" d="M 254.412604 262.960511 
L 288.510313 373.706304 
L 322.608022 311.235553 
L 356.705731 354.562061 
L 390.803439 294.18413 
" style="fill:none;stroke:#35ae95;stroke-linecap:square;stroke-width:1.5;"/>
   </g>
   <g id="line2d_232">
    <path clip-path="url(#p6b9ecacefe)" d="M 254.412604 308.917421 
L 288.510313 374.487612 
L 322.608022 311.315037 
L 356.705731 367.877647 
L 390.803439 321.603428 
" style="fill:none;stroke:#37abb2;stroke-linecap:square;stroke-width:1.5;"/>
   </g>
   <g id="line2d_233">
    <path clip-path="url(#p6b9ecacefe)" d="M 254.412604 310.534344 
L 288.510313 378.17571 
L 322.608022 310.810327 
L 356.705731 363.04522 
L 390.803439 317.613275 
" style="fill:none;stroke:#39a7d6;stroke-linecap:square;stroke-width:1.5;"/>
   </g>
   <g id="line2d_234">
    <path clip-path="url(#p6b9ecacefe)" d="M 254.412604 241.71576 
L 288.510313 375.468346 
L 322.608022 243.091433 
L 356.705731 356.092516 
L 390.803439 318.818198 
" style="fill:none;stroke:#8f93f4;stroke-linecap:square;stroke-width:1.5;"/>
   </g>
   <g id="line2d_235">
    <path clip-path="url(#p6b9ecacefe)" d="M 254.412604 238.099462 
L 288.510313 350.045765 
L 322.608022 316.850552 
L 356.705731 337.098513 
L 390.803439 249.108941 
" style="fill:none;stroke:#db70f4;stroke-linecap:square;stroke-width:1.5;"/>
   </g>
   <g id="line2d_236">
    <path clip-path="url(#p6b9ecacefe)" d="M 254.412604 290.945336 
L 288.510313 371.062486 
L 322.608022 295.572029 
L 356.705731 345.829433 
L 390.803439 322.871697 
" style="fill:none;stroke:#f667c6;stroke-linecap:square;stroke-width:1.5;"/>
   </g>
   <g id="line2d_237"/>
   <g id="line2d_238"/>
   <g id="line2d_239"/>
   <g id="line2d_240"/>
   <g id="line2d_241"/>
   <g id="line2d_242"/>
   <g id="line2d_243"/>
   <g id="line2d_244"/>
   <g id="line2d_245"/>
   <g id="line2d_246"/>
   <g id="line2d_247"/>
   <g id="line2d_248">
    <path clip-path="url(#p6b9ecacefe)" d="M 247.593063 290.945336 
L 261.232146 290.945336 
" style="fill:none;stroke:#999999;stroke-linecap:square;stroke-width:1.5;"/>
   </g>
   <g id="line2d_249">
    <path clip-path="url(#p6b9ecacefe)" d="M 281.690771 373.706304 
L 295.329855 373.706304 
" style="fill:none;stroke:#999999;stroke-linecap:square;stroke-width:1.5;"/>
   </g>
   <g id="line2d_250">
    <path clip-path="url(#p6b9ecacefe)" d="M 315.78848 310.810327 
L 329.427564 310.810327 
" style="fill:none;stroke:#999999;stroke-linecap:square;stroke-width:1.5;"/>
   </g>
   <g id="line2d_251">
    <path clip-path="url(#p6b9ecacefe)" d="M 349.886189 356.092516 
L 363.525272 356.092516 
" style="fill:none;stroke:#999999;stroke-linecap:square;stroke-width:1.5;"/>
   </g>
   <g id="line2d_252">
    <path clip-path="url(#p6b9ecacefe)" d="M 383.983898 317.613275 
L 397.622981 317.613275 
" style="fill:none;stroke:#999999;stroke-linecap:square;stroke-width:1.5;"/>
   </g>
   <g id="patch_32">
    <path d="M 237.36375 386.118437 
L 237.36375 211.378437 
" style="fill:none;stroke:#000000;stroke-linecap:square;stroke-linejoin:miter;stroke-width:0.8;"/>
   </g>
   <g id="patch_33">
    <path d="M 237.36375 386.118438 
L 407.852294 386.118438 
" style="fill:none;stroke:#000000;stroke-linecap:square;stroke-linejoin:miter;stroke-width:0.8;"/>
   </g>
   <g id="text_30">
    <!-- behav_var = curvature -->
    <g transform="translate(413.619877 241.102344)rotate(-270)scale(0.1 -0.1)">
     <use xlink:href="#DejaVuSans-62"/>
     <use x="63.476562" xlink:href="#DejaVuSans-65"/>
     <use x="125" xlink:href="#DejaVuSans-68"/>
     <use x="188.378906" xlink:href="#DejaVuSans-61"/>
     <use x="249.658203" xlink:href="#DejaVuSans-76"/>
     <use x="308.837891" xlink:href="#DejaVuSans-5f"/>
     <use x="358.837891" xlink:href="#DejaVuSans-76"/>
     <use x="418.017578" xlink:href="#DejaVuSans-61"/>
     <use x="479.296875" xlink:href="#DejaVuSans-72"/>
     <use x="520.410156" xlink:href="#DejaVuSans-20"/>
     <use x="552.197266" xlink:href="#DejaVuSans-3d"/>
     <use x="635.986328" xlink:href="#DejaVuSans-20"/>
     <use x="667.773438" xlink:href="#DejaVuSans-63"/>
     <use x="722.753906" xlink:href="#DejaVuSans-75"/>
     <use x="786.132812" xlink:href="#DejaVuSans-72"/>
     <use x="827.246094" xlink:href="#DejaVuSans-76"/>
     <use x="886.425781" xlink:href="#DejaVuSans-61"/>
     <use x="947.705078" xlink:href="#DejaVuSans-74"/>
     <use x="986.914062" xlink:href="#DejaVuSans-75"/>
     <use x="1050.292969" xlink:href="#DejaVuSans-72"/>
     <use x="1091.375" xlink:href="#DejaVuSans-65"/>
    </g>
   </g>
  </g>
 </g>
 <defs>
  <clipPath id="p83614c68d2">
   <rect height="174.74" width="170.488544" x="44.059375" y="20.798437"/>
  </clipPath>
  <clipPath id="p8340eabc16">
   <rect height="174.74" width="170.488544" x="237.36375" y="20.798437"/>
  </clipPath>
  <clipPath id="p72555769ab">
   <rect height="174.74" width="170.488544" x="44.059375" y="211.378437"/>
  </clipPath>
  <clipPath id="p6b9ecacefe">
   <rect height="174.74" width="170.488544" x="237.36375" y="211.378437"/>
  </clipPath>
 </defs>
</svg>
